G04 #@! TF.GenerationSoftware,KiCad,Pcbnew,(5.99.0-10027-g0561ce903e)*
G04 #@! TF.CreationDate,2021-08-15T01:29:50-07:00*
G04 #@! TF.ProjectId,scale_cca,7363616c-655f-4636-9361-2e6b69636164,v1r0*
G04 #@! TF.SameCoordinates,Original*
G04 #@! TF.FileFunction,Soldermask,Top*
G04 #@! TF.FilePolarity,Negative*
%FSLAX46Y46*%
G04 Gerber Fmt 4.6, Leading zero omitted, Abs format (unit mm)*
G04 Created by KiCad (PCBNEW (5.99.0-10027-g0561ce903e)) date 2021-08-15 01:29:50*
%MOMM*%
%LPD*%
G01*
G04 APERTURE LIST*
G04 Aperture macros list*
%AMRoundRect*
0 Rectangle with rounded corners*
0 $1 Rounding radius*
0 $2 $3 $4 $5 $6 $7 $8 $9 X,Y pos of 4 corners*
0 Add a 4 corners polygon primitive as box body*
4,1,4,$2,$3,$4,$5,$6,$7,$8,$9,$2,$3,0*
0 Add four circle primitives for the rounded corners*
1,1,$1+$1,$2,$3*
1,1,$1+$1,$4,$5*
1,1,$1+$1,$6,$7*
1,1,$1+$1,$8,$9*
0 Add four rect primitives between the rounded corners*
20,1,$1+$1,$2,$3,$4,$5,0*
20,1,$1+$1,$4,$5,$6,$7,0*
20,1,$1+$1,$6,$7,$8,$9,0*
20,1,$1+$1,$8,$9,$2,$3,0*%
G04 Aperture macros list end*
%ADD10RoundRect,0.050800X-2.406790X2.129668X1.178062X-2.990032X2.406790X-2.129668X-1.178062X2.990032X0*%
%ADD11RoundRect,0.050800X-0.300000X-0.300000X0.300000X-0.300000X0.300000X0.300000X-0.300000X0.300000X0*%
%ADD12RoundRect,0.050800X-3.125000X-0.750000X3.125000X-0.750000X3.125000X0.750000X-3.125000X0.750000X0*%
%ADD13RoundRect,0.050800X-0.084365X-3.212632X1.533254X2.824404X0.084365X3.212632X-1.533254X-2.824404X0*%
%ADD14C,1.000000*%
%ADD15RoundRect,0.275400X-0.500400X0.275400X-0.500400X-0.275400X0.500400X-0.275400X0.500400X0.275400X0*%
%ADD16RoundRect,0.050800X-1.533254X2.824404X0.084365X-3.212632X1.533254X-2.824404X-0.084365X3.212632X0*%
%ADD17RoundRect,0.050800X-1.178062X-2.990032X2.406790X2.129668X1.178062X2.990032X-2.406790X-2.129668X0*%
G04 APERTURE END LIST*
D10*
X33909000Y-44551600D03*
D11*
X33316000Y-54779000D03*
X33316000Y-53679000D03*
X32216000Y-53679000D03*
X32216000Y-54779000D03*
D12*
X36512500Y-38862000D03*
D13*
X29337000Y-45212000D03*
D14*
X27940000Y-36068000D03*
D11*
X32427000Y-47413000D03*
X32427000Y-46313000D03*
X31327000Y-46313000D03*
X31327000Y-47413000D03*
D15*
X45847000Y-39055000D03*
X45847000Y-40955000D03*
D11*
X40682000Y-54779000D03*
X40682000Y-53679000D03*
X39582000Y-53679000D03*
X39582000Y-54779000D03*
X27601000Y-43730000D03*
X27601000Y-42630000D03*
X26501000Y-42630000D03*
X26501000Y-43730000D03*
X37062500Y-51096000D03*
X37062500Y-49996000D03*
X35962500Y-49996000D03*
X35962500Y-51096000D03*
D12*
X36512500Y-40640000D03*
D11*
X44492000Y-51096000D03*
X44492000Y-49996000D03*
X43392000Y-49996000D03*
X43392000Y-51096000D03*
D15*
X27178000Y-39055000D03*
X27178000Y-40955000D03*
D11*
X29633000Y-51096000D03*
X29633000Y-49996000D03*
X28533000Y-49996000D03*
X28533000Y-51096000D03*
X41698000Y-47413000D03*
X41698000Y-46313000D03*
X40598000Y-46313000D03*
X40598000Y-47413000D03*
D14*
X36512500Y-60198000D03*
D11*
X37062500Y-43730000D03*
X37062500Y-42630000D03*
X35962500Y-42630000D03*
X35962500Y-43730000D03*
D16*
X43688000Y-45212000D03*
D14*
X45085000Y-36068000D03*
D11*
X37062500Y-58462000D03*
X37062500Y-57362000D03*
X35962500Y-57362000D03*
X35962500Y-58462000D03*
X46524000Y-43730000D03*
X46524000Y-42630000D03*
X45424000Y-42630000D03*
X45424000Y-43730000D03*
D17*
X39116000Y-44551600D03*
M02*
