G04 #@! TF.GenerationSoftware,KiCad,Pcbnew,(5.99.0-10027-g0561ce903e)*
G04 #@! TF.CreationDate,2021-08-15T01:29:50-07:00*
G04 #@! TF.ProjectId,scale_cca,7363616c-655f-4636-9361-2e6b69636164,v1r0*
G04 #@! TF.SameCoordinates,Original*
G04 #@! TF.FileFunction,Legend,Top*
G04 #@! TF.FilePolarity,Positive*
%FSLAX46Y46*%
G04 Gerber Fmt 4.6, Leading zero omitted, Abs format (unit mm)*
G04 Created by KiCad (PCBNEW (5.99.0-10027-g0561ce903e)) date 2021-08-15 01:29:50*
%MOMM*%
%LPD*%
G01*
G04 APERTURE LIST*
%ADD10C,0.150000*%
%ADD11C,0.120000*%
G04 APERTURE END LIST*
D10*
X32027904Y-56781380D02*
X32027904Y-55781380D01*
X32266000Y-55781380D01*
X32408857Y-55829000D01*
X32504095Y-55924238D01*
X32551714Y-56019476D01*
X32599333Y-56209952D01*
X32599333Y-56352809D01*
X32551714Y-56543285D01*
X32504095Y-56638523D01*
X32408857Y-56733761D01*
X32266000Y-56781380D01*
X32027904Y-56781380D01*
X33456476Y-55781380D02*
X33266000Y-55781380D01*
X33170761Y-55829000D01*
X33123142Y-55876619D01*
X33027904Y-56019476D01*
X32980285Y-56209952D01*
X32980285Y-56590904D01*
X33027904Y-56686142D01*
X33075523Y-56733761D01*
X33170761Y-56781380D01*
X33361238Y-56781380D01*
X33456476Y-56733761D01*
X33504095Y-56686142D01*
X33551714Y-56590904D01*
X33551714Y-56352809D01*
X33504095Y-56257571D01*
X33456476Y-56209952D01*
X33361238Y-56162333D01*
X33170761Y-56162333D01*
X33075523Y-56209952D01*
X33027904Y-56257571D01*
X32980285Y-56352809D01*
X40272534Y-38091228D02*
X39565427Y-37384122D01*
X39733786Y-37215763D01*
X39868473Y-37148419D01*
X40003160Y-37148419D01*
X40104175Y-37182091D01*
X40272534Y-37283106D01*
X40373549Y-37384122D01*
X40474564Y-37552480D01*
X40508236Y-37653496D01*
X40508236Y-37788183D01*
X40440893Y-37922870D01*
X40272534Y-38091228D01*
X40407221Y-36542328D02*
X40541908Y-36407641D01*
X40642923Y-36373969D01*
X40777610Y-36373969D01*
X40945969Y-36474984D01*
X41181671Y-36710687D01*
X41282687Y-36879045D01*
X41282687Y-37013732D01*
X41249015Y-37114748D01*
X41114328Y-37249435D01*
X41013312Y-37283106D01*
X40878625Y-37283106D01*
X40710267Y-37182091D01*
X40474564Y-36946389D01*
X40373549Y-36778030D01*
X40373549Y-36643343D01*
X40407221Y-36542328D01*
X41013312Y-35936236D02*
X41585732Y-36508656D01*
X41686748Y-36542328D01*
X41754091Y-36542328D01*
X41855106Y-36508656D01*
X41989793Y-36373969D01*
X42023465Y-36272954D01*
X42023465Y-36205610D01*
X41989793Y-36104595D01*
X41417374Y-35532175D01*
X41653076Y-35296473D02*
X42057137Y-34892412D01*
X42562213Y-35801549D02*
X41855106Y-35094442D01*
X26402546Y-47768194D02*
X27454745Y-47705037D01*
X26575092Y-47124243D01*
X27259319Y-46962489D02*
X27456514Y-46226546D01*
X27725888Y-46693115D02*
X26989945Y-46495920D01*
X31138904Y-49415380D02*
X31138904Y-48415380D01*
X31377000Y-48415380D01*
X31519857Y-48463000D01*
X31615095Y-48558238D01*
X31662714Y-48653476D01*
X31710333Y-48843952D01*
X31710333Y-48986809D01*
X31662714Y-49177285D01*
X31615095Y-49272523D01*
X31519857Y-49367761D01*
X31377000Y-49415380D01*
X31138904Y-49415380D01*
X32043666Y-48415380D02*
X32662714Y-48415380D01*
X32329380Y-48796333D01*
X32472238Y-48796333D01*
X32567476Y-48843952D01*
X32615095Y-48891571D01*
X32662714Y-48986809D01*
X32662714Y-49224904D01*
X32615095Y-49320142D01*
X32567476Y-49367761D01*
X32472238Y-49415380D01*
X32186523Y-49415380D01*
X32091285Y-49367761D01*
X32043666Y-49320142D01*
X45299333Y-37949142D02*
X45251714Y-37996761D01*
X45108857Y-38044380D01*
X45013619Y-38044380D01*
X44870761Y-37996761D01*
X44775523Y-37901523D01*
X44727904Y-37806285D01*
X44680285Y-37615809D01*
X44680285Y-37472952D01*
X44727904Y-37282476D01*
X44775523Y-37187238D01*
X44870761Y-37092000D01*
X45013619Y-37044380D01*
X45108857Y-37044380D01*
X45251714Y-37092000D01*
X45299333Y-37139619D01*
X45680285Y-37139619D02*
X45727904Y-37092000D01*
X45823142Y-37044380D01*
X46061238Y-37044380D01*
X46156476Y-37092000D01*
X46204095Y-37139619D01*
X46251714Y-37234857D01*
X46251714Y-37330095D01*
X46204095Y-37472952D01*
X45632666Y-38044380D01*
X46251714Y-38044380D01*
X39393904Y-56781380D02*
X39393904Y-55781380D01*
X39632000Y-55781380D01*
X39774857Y-55829000D01*
X39870095Y-55924238D01*
X39917714Y-56019476D01*
X39965333Y-56209952D01*
X39965333Y-56352809D01*
X39917714Y-56543285D01*
X39870095Y-56638523D01*
X39774857Y-56733761D01*
X39632000Y-56781380D01*
X39393904Y-56781380D01*
X40536761Y-56209952D02*
X40441523Y-56162333D01*
X40393904Y-56114714D01*
X40346285Y-56019476D01*
X40346285Y-55971857D01*
X40393904Y-55876619D01*
X40441523Y-55829000D01*
X40536761Y-55781380D01*
X40727238Y-55781380D01*
X40822476Y-55829000D01*
X40870095Y-55876619D01*
X40917714Y-55971857D01*
X40917714Y-56019476D01*
X40870095Y-56114714D01*
X40822476Y-56162333D01*
X40727238Y-56209952D01*
X40536761Y-56209952D01*
X40441523Y-56257571D01*
X40393904Y-56305190D01*
X40346285Y-56400428D01*
X40346285Y-56590904D01*
X40393904Y-56686142D01*
X40441523Y-56733761D01*
X40536761Y-56781380D01*
X40727238Y-56781380D01*
X40822476Y-56733761D01*
X40870095Y-56686142D01*
X40917714Y-56590904D01*
X40917714Y-56400428D01*
X40870095Y-56305190D01*
X40822476Y-56257571D01*
X40727238Y-56209952D01*
X26312904Y-45732380D02*
X26312904Y-44732380D01*
X26551000Y-44732380D01*
X26693857Y-44780000D01*
X26789095Y-44875238D01*
X26836714Y-44970476D01*
X26884333Y-45160952D01*
X26884333Y-45303809D01*
X26836714Y-45494285D01*
X26789095Y-45589523D01*
X26693857Y-45684761D01*
X26551000Y-45732380D01*
X26312904Y-45732380D01*
X27265285Y-44827619D02*
X27312904Y-44780000D01*
X27408142Y-44732380D01*
X27646238Y-44732380D01*
X27741476Y-44780000D01*
X27789095Y-44827619D01*
X27836714Y-44922857D01*
X27836714Y-45018095D01*
X27789095Y-45160952D01*
X27217666Y-45732380D01*
X27836714Y-45732380D01*
X35774404Y-53098380D02*
X35774404Y-52098380D01*
X36012500Y-52098380D01*
X36155357Y-52146000D01*
X36250595Y-52241238D01*
X36298214Y-52336476D01*
X36345833Y-52526952D01*
X36345833Y-52669809D01*
X36298214Y-52860285D01*
X36250595Y-52955523D01*
X36155357Y-53050761D01*
X36012500Y-53098380D01*
X35774404Y-53098380D01*
X37250595Y-52098380D02*
X36774404Y-52098380D01*
X36726785Y-52574571D01*
X36774404Y-52526952D01*
X36869642Y-52479333D01*
X37107738Y-52479333D01*
X37202976Y-52526952D01*
X37250595Y-52574571D01*
X37298214Y-52669809D01*
X37298214Y-52907904D01*
X37250595Y-53003142D01*
X37202976Y-53050761D01*
X37107738Y-53098380D01*
X36869642Y-53098380D01*
X36774404Y-53050761D01*
X36726785Y-53003142D01*
X43203904Y-53098380D02*
X43203904Y-52098380D01*
X43442000Y-52098380D01*
X43584857Y-52146000D01*
X43680095Y-52241238D01*
X43727714Y-52336476D01*
X43775333Y-52526952D01*
X43775333Y-52669809D01*
X43727714Y-52860285D01*
X43680095Y-52955523D01*
X43584857Y-53050761D01*
X43442000Y-53098380D01*
X43203904Y-53098380D01*
X44251523Y-53098380D02*
X44442000Y-53098380D01*
X44537238Y-53050761D01*
X44584857Y-53003142D01*
X44680095Y-52860285D01*
X44727714Y-52669809D01*
X44727714Y-52288857D01*
X44680095Y-52193619D01*
X44632476Y-52146000D01*
X44537238Y-52098380D01*
X44346761Y-52098380D01*
X44251523Y-52146000D01*
X44203904Y-52193619D01*
X44156285Y-52288857D01*
X44156285Y-52526952D01*
X44203904Y-52622190D01*
X44251523Y-52669809D01*
X44346761Y-52717428D01*
X44537238Y-52717428D01*
X44632476Y-52669809D01*
X44680095Y-52622190D01*
X44727714Y-52526952D01*
X27519333Y-37949142D02*
X27471714Y-37996761D01*
X27328857Y-38044380D01*
X27233619Y-38044380D01*
X27090761Y-37996761D01*
X26995523Y-37901523D01*
X26947904Y-37806285D01*
X26900285Y-37615809D01*
X26900285Y-37472952D01*
X26947904Y-37282476D01*
X26995523Y-37187238D01*
X27090761Y-37092000D01*
X27233619Y-37044380D01*
X27328857Y-37044380D01*
X27471714Y-37092000D01*
X27519333Y-37139619D01*
X28471714Y-38044380D02*
X27900285Y-38044380D01*
X28186000Y-38044380D02*
X28186000Y-37044380D01*
X28090761Y-37187238D01*
X27995523Y-37282476D01*
X27900285Y-37330095D01*
X28344904Y-53098380D02*
X28344904Y-52098380D01*
X28583000Y-52098380D01*
X28725857Y-52146000D01*
X28821095Y-52241238D01*
X28868714Y-52336476D01*
X28916333Y-52526952D01*
X28916333Y-52669809D01*
X28868714Y-52860285D01*
X28821095Y-52955523D01*
X28725857Y-53050761D01*
X28583000Y-53098380D01*
X28344904Y-53098380D01*
X29773476Y-52431714D02*
X29773476Y-53098380D01*
X29535380Y-52050761D02*
X29297285Y-52765047D01*
X29916333Y-52765047D01*
X39933714Y-49415380D02*
X39933714Y-48415380D01*
X40171809Y-48415380D01*
X40314666Y-48463000D01*
X40409904Y-48558238D01*
X40457523Y-48653476D01*
X40505142Y-48843952D01*
X40505142Y-48986809D01*
X40457523Y-49177285D01*
X40409904Y-49272523D01*
X40314666Y-49367761D01*
X40171809Y-49415380D01*
X39933714Y-49415380D01*
X41457523Y-49415380D02*
X40886095Y-49415380D01*
X41171809Y-49415380D02*
X41171809Y-48415380D01*
X41076571Y-48558238D01*
X40981333Y-48653476D01*
X40886095Y-48701095D01*
X42076571Y-48415380D02*
X42171809Y-48415380D01*
X42267047Y-48463000D01*
X42314666Y-48510619D01*
X42362285Y-48605857D01*
X42409904Y-48796333D01*
X42409904Y-49034428D01*
X42362285Y-49224904D01*
X42314666Y-49320142D01*
X42267047Y-49367761D01*
X42171809Y-49415380D01*
X42076571Y-49415380D01*
X41981333Y-49367761D01*
X41933714Y-49320142D01*
X41886095Y-49224904D01*
X41838476Y-49034428D01*
X41838476Y-48796333D01*
X41886095Y-48605857D01*
X41933714Y-48510619D01*
X41981333Y-48463000D01*
X42076571Y-48415380D01*
X35774404Y-45537380D02*
X35774404Y-44537380D01*
X36012500Y-44537380D01*
X36155357Y-44585000D01*
X36250595Y-44680238D01*
X36298214Y-44775476D01*
X36345833Y-44965952D01*
X36345833Y-45108809D01*
X36298214Y-45299285D01*
X36250595Y-45394523D01*
X36155357Y-45489761D01*
X36012500Y-45537380D01*
X35774404Y-45537380D01*
X37298214Y-45537380D02*
X36726785Y-45537380D01*
X37012500Y-45537380D02*
X37012500Y-44537380D01*
X36917261Y-44680238D01*
X36822023Y-44775476D01*
X36726785Y-44823095D01*
X46256465Y-46182336D02*
X45376812Y-46763130D01*
X46429011Y-46826286D01*
X45917330Y-47308483D02*
X46114525Y-48044427D01*
X45647956Y-47775053D02*
X46383899Y-47577857D01*
X35774404Y-56332380D02*
X35774404Y-55332380D01*
X36012500Y-55332380D01*
X36155357Y-55380000D01*
X36250595Y-55475238D01*
X36298214Y-55570476D01*
X36345833Y-55760952D01*
X36345833Y-55903809D01*
X36298214Y-56094285D01*
X36250595Y-56189523D01*
X36155357Y-56284761D01*
X36012500Y-56332380D01*
X35774404Y-56332380D01*
X36679166Y-55332380D02*
X37345833Y-55332380D01*
X36917261Y-56332380D01*
X44759714Y-45732380D02*
X44759714Y-44732380D01*
X44997809Y-44732380D01*
X45140666Y-44780000D01*
X45235904Y-44875238D01*
X45283523Y-44970476D01*
X45331142Y-45160952D01*
X45331142Y-45303809D01*
X45283523Y-45494285D01*
X45235904Y-45589523D01*
X45140666Y-45684761D01*
X44997809Y-45732380D01*
X44759714Y-45732380D01*
X46283523Y-45732380D02*
X45712095Y-45732380D01*
X45997809Y-45732380D02*
X45997809Y-44732380D01*
X45902571Y-44875238D01*
X45807333Y-44970476D01*
X45712095Y-45018095D01*
X47235904Y-45732380D02*
X46664476Y-45732380D01*
X46950190Y-45732380D02*
X46950190Y-44732380D01*
X46854952Y-44875238D01*
X46759714Y-44970476D01*
X46664476Y-45018095D01*
X35687095Y-47861600D02*
X35591857Y-47813980D01*
X35449000Y-47813980D01*
X35306142Y-47861600D01*
X35210904Y-47956838D01*
X35163285Y-48052076D01*
X35115666Y-48242552D01*
X35115666Y-48385409D01*
X35163285Y-48575885D01*
X35210904Y-48671123D01*
X35306142Y-48766361D01*
X35449000Y-48813980D01*
X35544238Y-48813980D01*
X35687095Y-48766361D01*
X35734714Y-48718742D01*
X35734714Y-48385409D01*
X35544238Y-48385409D01*
X36163285Y-48813980D02*
X36163285Y-47813980D01*
X36734714Y-48813980D01*
X36734714Y-47813980D01*
X37210904Y-48813980D02*
X37210904Y-47813980D01*
X37449000Y-47813980D01*
X37591857Y-47861600D01*
X37687095Y-47956838D01*
X37734714Y-48052076D01*
X37782333Y-48242552D01*
X37782333Y-48385409D01*
X37734714Y-48575885D01*
X37687095Y-48671123D01*
X37591857Y-48766361D01*
X37449000Y-48813980D01*
X37210904Y-48813980D01*
D11*
X31566000Y-55429000D02*
X33966000Y-55429000D01*
X33966000Y-55429000D02*
X33966000Y-54729000D01*
X31566000Y-53029000D02*
X33966000Y-53029000D01*
X30677000Y-45663000D02*
X33077000Y-45663000D01*
X30677000Y-48063000D02*
X33077000Y-48063000D01*
X33077000Y-48063000D02*
X33077000Y-47363000D01*
X46582000Y-39743748D02*
X46582000Y-40266252D01*
X45112000Y-39743748D02*
X45112000Y-40266252D01*
X38932000Y-55429000D02*
X41332000Y-55429000D01*
X38932000Y-53029000D02*
X41332000Y-53029000D01*
X41332000Y-55429000D02*
X41332000Y-54729000D01*
X28251000Y-44380000D02*
X28251000Y-43680000D01*
X25851000Y-41980000D02*
X28251000Y-41980000D01*
X25851000Y-44380000D02*
X28251000Y-44380000D01*
X35312500Y-49346000D02*
X37712500Y-49346000D01*
X35312500Y-51746000D02*
X37712500Y-51746000D01*
X37712500Y-51746000D02*
X37712500Y-51046000D01*
X42742000Y-49346000D02*
X45142000Y-49346000D01*
X45142000Y-51746000D02*
X45142000Y-51046000D01*
X42742000Y-51746000D02*
X45142000Y-51746000D01*
X26443000Y-39743748D02*
X26443000Y-40266252D01*
X27913000Y-39743748D02*
X27913000Y-40266252D01*
X27883000Y-51746000D02*
X30283000Y-51746000D01*
X27883000Y-49346000D02*
X30283000Y-49346000D01*
X30283000Y-51746000D02*
X30283000Y-51046000D01*
X39948000Y-48063000D02*
X42348000Y-48063000D01*
X42348000Y-48063000D02*
X42348000Y-47363000D01*
X39948000Y-45663000D02*
X42348000Y-45663000D01*
X35312500Y-44380000D02*
X37712500Y-44380000D01*
X37712500Y-44380000D02*
X37712500Y-43680000D01*
X35312500Y-41980000D02*
X37712500Y-41980000D01*
X35312500Y-59112000D02*
X37712500Y-59112000D01*
X35312500Y-56712000D02*
X37712500Y-56712000D01*
X37712500Y-59112000D02*
X37712500Y-58412000D01*
X44774000Y-41980000D02*
X47174000Y-41980000D01*
X44774000Y-44380000D02*
X47174000Y-44380000D01*
X47174000Y-44380000D02*
X47174000Y-43680000D01*
M02*
