M48
; DRILL file {KiCad (5.99.0-10027-g0561ce903e)} date Sun Aug 15 01:29:54 2021
; FORMAT={-:-/ absolute / inch / decimal}
; #@! TF.CreationDate,2021-08-15T01:29:54-07:00
; #@! TF.GenerationSoftware,Kicad,Pcbnew,(5.99.0-10027-g0561ce903e)
; #@! TF.FileFunction,Plated,1,2,PTH
FMAT,2
INCH
; #@! TA.AperFunction,ViaDrill
T1C0.0157
%
G90
G05
T1
X1.055Y-1.815
X1.065Y-1.895
X1.08Y-1.955
X1.12Y-1.64
X1.125Y-1.685
X1.14Y-1.45
X1.2Y-1.845
X1.21Y-2.0685
X1.225Y-2.11
X1.225Y-2.155
X1.235Y-1.755
X1.33Y-1.865
X1.36Y-1.9
X1.375Y-1.965
X1.375Y-2.255
X1.38Y-1.67
X1.44Y-1.8
X1.505Y-1.665
X1.505Y-1.965
X1.52Y-2.11
X1.55Y-1.875
X1.5983Y-1.7717
X1.615Y-2.045
X1.655Y-1.775
X1.67Y-1.965
X1.67Y-2.1
X1.6803Y-1.4485
X1.72Y-1.43
X1.7493Y-1.6839
X1.7503Y-1.6403
X1.79Y-1.82
X1.795Y-1.95
X1.84Y-1.82
T0
M30
