G04 #@! TF.GenerationSoftware,KiCad,Pcbnew,(5.99.0-10027-g0561ce903e)*
G04 #@! TF.CreationDate,2021-10-10T12:50:56-07:00*
G04 #@! TF.ProjectId,scale_cca,7363616c-655f-4636-9361-2e6b69636164,v1r0*
G04 #@! TF.SameCoordinates,Original*
G04 #@! TF.FileFunction,Paste,Top*
G04 #@! TF.FilePolarity,Positive*
%FSLAX46Y46*%
G04 Gerber Fmt 4.6, Leading zero omitted, Abs format (unit mm)*
G04 Created by KiCad (PCBNEW (5.99.0-10027-g0561ce903e)) date 2021-10-10 12:50:56*
%MOMM*%
%LPD*%
G01*
G04 APERTURE LIST*
G04 Aperture macros list*
%AMRoundRect*
0 Rectangle with rounded corners*
0 $1 Rounding radius*
0 $2 $3 $4 $5 $6 $7 $8 $9 X,Y pos of 4 corners*
0 Add a 4 corners polygon primitive as box body*
4,1,4,$2,$3,$4,$5,$6,$7,$8,$9,$2,$3,0*
0 Add four circle primitives for the rounded corners*
1,1,$1+$1,$2,$3*
1,1,$1+$1,$4,$5*
1,1,$1+$1,$6,$7*
1,1,$1+$1,$8,$9*
0 Add four rect primitives between the rounded corners*
20,1,$1+$1,$2,$3,$4,$5,0*
20,1,$1+$1,$4,$5,$6,$7,0*
20,1,$1+$1,$6,$7,$8,$9,0*
20,1,$1+$1,$8,$9,$2,$3,0*%
G04 Aperture macros list end*
%ADD10R,0.600000X0.600000*%
%ADD11R,1.500000X6.250000*%
%ADD12RoundRect,0.250000X0.475000X-0.250000X0.475000X0.250000X-0.475000X0.250000X-0.475000X-0.250000X0*%
G04 APERTURE END LIST*
D10*
X41253500Y-44365000D03*
X41253500Y-43265000D03*
X40153500Y-43265000D03*
X40153500Y-44365000D03*
D11*
X33083500Y-16637000D03*
D10*
X34141500Y-49699000D03*
X34141500Y-48599000D03*
X33041500Y-48599000D03*
X33041500Y-49699000D03*
X30585500Y-51223000D03*
X30585500Y-50123000D03*
X29485500Y-50123000D03*
X29485500Y-51223000D03*
X32871500Y-44365000D03*
X32871500Y-43265000D03*
X31771500Y-43265000D03*
X31771500Y-44365000D03*
X39983500Y-49699000D03*
X39983500Y-48599000D03*
X38883500Y-48599000D03*
X38883500Y-49699000D03*
X45190500Y-46651000D03*
X45190500Y-45551000D03*
X44090500Y-45551000D03*
X44090500Y-46651000D03*
D11*
X30543500Y-16637000D03*
D10*
X28934500Y-41571000D03*
X28934500Y-40471000D03*
X27834500Y-40471000D03*
X27834500Y-41571000D03*
X33379500Y-55287000D03*
X33379500Y-54187000D03*
X32279500Y-54187000D03*
X32279500Y-55287000D03*
D12*
X36512500Y-41971000D03*
X36512500Y-40071000D03*
D10*
X37062500Y-53001000D03*
X37062500Y-51901000D03*
X35962500Y-51901000D03*
X35962500Y-53001000D03*
X37062500Y-58335000D03*
X37062500Y-57235000D03*
X35962500Y-57235000D03*
X35962500Y-58335000D03*
X37062500Y-46397000D03*
X37062500Y-45297000D03*
X35962500Y-45297000D03*
X35962500Y-46397000D03*
X45190500Y-41571000D03*
X45190500Y-40471000D03*
X44090500Y-40471000D03*
X44090500Y-41571000D03*
X28934500Y-46651000D03*
X28934500Y-45551000D03*
X27834500Y-45551000D03*
X27834500Y-46651000D03*
X40745500Y-55287000D03*
X40745500Y-54187000D03*
X39645500Y-54187000D03*
X39645500Y-55287000D03*
D11*
X28003500Y-16637000D03*
D10*
X43539500Y-51223000D03*
X43539500Y-50123000D03*
X42439500Y-50123000D03*
X42439500Y-51223000D03*
M02*
