M48
; DRILL file {KiCad (5.99.0-10027-g0561ce903e)} date Fri Sep  3 22:07:32 2021
; FORMAT={-:-/ absolute / inch / decimal}
; #@! TF.CreationDate,2021-09-03T22:07:32-07:00
; #@! TF.GenerationSoftware,Kicad,Pcbnew,(5.99.0-10027-g0561ce903e)
; #@! TF.FileFunction,Plated,1,2,PTH
FMAT,2
INCH
; #@! TA.AperFunction,ViaDrill
T1C0.0157
%
G90
G05
T1
X1.0604Y-1.785
X1.2591Y-1.5716
X1.2708Y-2.0767
X1.2925Y-1.825
X1.3225Y-2.055
X1.3503Y-1.7004
X1.3575Y-2.235
X1.3775Y-1.765
X1.3825Y-1.895
X1.4975Y-1.755
X1.5Y-1.7975
X1.5149Y-2.0474
X1.5175Y-1.685
X1.5275Y-1.725
X1.5608Y-2.0717
X1.5875Y-1.6112
X1.6097Y-1.5778
X1.6125Y-1.645
X1.6225Y-1.945
X1.6575Y-2.115
X1.8125Y-1.775
T0
M30
