G04 #@! TF.GenerationSoftware,KiCad,Pcbnew,(5.99.0-10027-g0561ce903e)*
G04 #@! TF.CreationDate,2021-09-03T22:07:34-07:00*
G04 #@! TF.ProjectId,scale_cca,7363616c-655f-4636-9361-2e6b69636164,v1r0*
G04 #@! TF.SameCoordinates,Original*
G04 #@! TF.FileFunction,Paste,Top*
G04 #@! TF.FilePolarity,Positive*
%FSLAX46Y46*%
G04 Gerber Fmt 4.6, Leading zero omitted, Abs format (unit mm)*
G04 Created by KiCad (PCBNEW (5.99.0-10027-g0561ce903e)) date 2021-09-03 22:07:34*
%MOMM*%
%LPD*%
G01*
G04 APERTURE LIST*
G04 Aperture macros list*
%AMRoundRect*
0 Rectangle with rounded corners*
0 $1 Rounding radius*
0 $2 $3 $4 $5 $6 $7 $8 $9 X,Y pos of 4 corners*
0 Add a 4 corners polygon primitive as box body*
4,1,4,$2,$3,$4,$5,$6,$7,$8,$9,$2,$3,0*
0 Add four circle primitives for the rounded corners*
1,1,$1+$1,$2,$3*
1,1,$1+$1,$4,$5*
1,1,$1+$1,$6,$7*
1,1,$1+$1,$8,$9*
0 Add four rect primitives between the rounded corners*
20,1,$1+$1,$2,$3,$4,$5,0*
20,1,$1+$1,$4,$5,$6,$7,0*
20,1,$1+$1,$6,$7,$8,$9,0*
20,1,$1+$1,$8,$9,$2,$3,0*%
%AMRotRect*
0 Rectangle, with rotation*
0 The origin of the aperture is its center*
0 $1 length*
0 $2 width*
0 $3 Rotation angle, in degrees counterclockwise*
0 Add horizontal line*
21,1,$1,$2,0,0,$3*%
G04 Aperture macros list end*
%ADD10RotRect,6.250000X1.500000X80.000000*%
%ADD11R,0.600000X0.600000*%
%ADD12R,6.250000X1.500000*%
%ADD13R,1.500000X6.250000*%
%ADD14RoundRect,0.250000X-0.250000X-0.475000X0.250000X-0.475000X0.250000X0.475000X-0.250000X0.475000X0*%
%ADD15RotRect,6.250000X1.500000X100.000000*%
G04 APERTURE END LIST*
D10*
X42227500Y-45593000D03*
D11*
X40745500Y-44111000D03*
X40745500Y-43011000D03*
X39645500Y-43011000D03*
X39645500Y-44111000D03*
D12*
X36512500Y-41275000D03*
D13*
X28257500Y-41275000D03*
D11*
X34141500Y-49699000D03*
X34141500Y-48599000D03*
X33041500Y-48599000D03*
X33041500Y-49699000D03*
X30585500Y-51223000D03*
X30585500Y-50123000D03*
X29485500Y-50123000D03*
X29485500Y-51223000D03*
X33379500Y-44111000D03*
X33379500Y-43011000D03*
X32279500Y-43011000D03*
X32279500Y-44111000D03*
X39983500Y-49699000D03*
X39983500Y-48599000D03*
X38883500Y-48599000D03*
X38883500Y-49699000D03*
X45190500Y-46651000D03*
X45190500Y-45551000D03*
X44090500Y-45551000D03*
X44090500Y-46651000D03*
D12*
X36512500Y-38760400D03*
D11*
X33379500Y-55287000D03*
X33379500Y-54187000D03*
X32279500Y-54187000D03*
X32279500Y-55287000D03*
D14*
X35562500Y-43307000D03*
X37462500Y-43307000D03*
D11*
X37062500Y-53001000D03*
X37062500Y-51901000D03*
X35962500Y-51901000D03*
X35962500Y-53001000D03*
X37062500Y-58335000D03*
X37062500Y-57235000D03*
X35962500Y-57235000D03*
X35962500Y-58335000D03*
X37062500Y-46397000D03*
X37062500Y-45297000D03*
X35962500Y-45297000D03*
X35962500Y-46397000D03*
D13*
X44767500Y-41275000D03*
D11*
X28934500Y-46651000D03*
X28934500Y-45551000D03*
X27834500Y-45551000D03*
X27834500Y-46651000D03*
X40745500Y-55287000D03*
X40745500Y-54187000D03*
X39645500Y-54187000D03*
X39645500Y-55287000D03*
D15*
X30797500Y-45593000D03*
D11*
X43539500Y-51223000D03*
X43539500Y-50123000D03*
X42439500Y-50123000D03*
X42439500Y-51223000D03*
M02*
