G04 #@! TF.GenerationSoftware,KiCad,Pcbnew,(5.99.0-10027-g0561ce903e)*
G04 #@! TF.CreationDate,2021-09-03T22:07:34-07:00*
G04 #@! TF.ProjectId,scale_cca,7363616c-655f-4636-9361-2e6b69636164,v1r0*
G04 #@! TF.SameCoordinates,Original*
G04 #@! TF.FileFunction,Copper,L2,Bot*
G04 #@! TF.FilePolarity,Positive*
%FSLAX46Y46*%
G04 Gerber Fmt 4.6, Leading zero omitted, Abs format (unit mm)*
G04 Created by KiCad (PCBNEW (5.99.0-10027-g0561ce903e)) date 2021-09-03 22:07:34*
%MOMM*%
%LPD*%
G01*
G04 APERTURE LIST*
G04 #@! TA.AperFunction,ViaPad*
%ADD10C,0.800000*%
G04 #@! TD*
G04 #@! TA.AperFunction,Conductor*
%ADD11C,0.500000*%
G04 #@! TD*
G04 #@! TA.AperFunction,Conductor*
%ADD12C,0.152400*%
G04 #@! TD*
G04 APERTURE END LIST*
D10*
X34480500Y-56769000D03*
X26934498Y-45339000D03*
X46037500Y-45085000D03*
X35115500Y-48133000D03*
X40887511Y-40074989D03*
X38544500Y-42799000D03*
X38100000Y-45656500D03*
X41211500Y-49403000D03*
X38798500Y-43815000D03*
X42100500Y-53721000D03*
X38478500Y-52004000D03*
X32279500Y-52747000D03*
X39645500Y-52620000D03*
X40957500Y-41783000D03*
X40322500Y-40924989D03*
X32829500Y-46355000D03*
X38036500Y-44577000D03*
X33591500Y-52197000D03*
X34297523Y-43191315D03*
X34988500Y-44831000D03*
X31981449Y-39918949D03*
D11*
X38478500Y-52771000D02*
X34480500Y-56769000D01*
X38478500Y-52004000D02*
X38478500Y-52771000D01*
X38100000Y-51625500D02*
X38100000Y-45656500D01*
X38478500Y-52004000D02*
X38100000Y-51625500D01*
D12*
X33886449Y-39918949D02*
X31981449Y-39918949D01*
X35877500Y-43942000D02*
X35877500Y-41910000D01*
X34988500Y-44831000D02*
X35877500Y-43942000D01*
X35877500Y-41910000D02*
X33886449Y-39918949D01*
X34226500Y-45339000D02*
X34480500Y-45593000D01*
X34226500Y-44263131D02*
X34226500Y-45339000D01*
X34973734Y-43515897D02*
X34226500Y-44263131D01*
X32829500Y-43658545D02*
X32829500Y-46355000D01*
X34622105Y-42515104D02*
X33972941Y-42515104D01*
X34973734Y-43515897D02*
X34973734Y-42866733D01*
X33972941Y-42515104D02*
X32829500Y-43658545D01*
X37020500Y-45593000D02*
X34480500Y-45593000D01*
X38036500Y-44577000D02*
X37020500Y-45593000D01*
X34973734Y-42866733D02*
X34622105Y-42515104D01*
D11*
X32279500Y-52155000D02*
X32279500Y-52747000D01*
X26084487Y-45959987D02*
X32279500Y-52155000D01*
X26084487Y-44070931D02*
X26084487Y-45959987D01*
X40887511Y-40074989D02*
X39529040Y-38716518D01*
X39529040Y-38716518D02*
X31438893Y-38716518D01*
X31438893Y-38716518D02*
X26084487Y-44070931D01*
X42493483Y-42799000D02*
X38544500Y-42799000D01*
X45629494Y-45935011D02*
X42493483Y-42799000D01*
X46445506Y-45935011D02*
X45629494Y-45935011D01*
X46887511Y-45493006D02*
X46445506Y-45935011D01*
X40887511Y-40074989D02*
X42285506Y-40074989D01*
X42285506Y-40074989D02*
X46887511Y-44676994D01*
X46887511Y-44676994D02*
X46887511Y-45493006D01*
D12*
X26934498Y-43965107D02*
X26934498Y-45339000D01*
X31656867Y-39242738D02*
X26934498Y-43965107D01*
X33708636Y-39242738D02*
X31656867Y-39242738D01*
X46037500Y-45085000D02*
X41877489Y-40924989D01*
X41877489Y-40924989D02*
X40322500Y-40924989D01*
X41211500Y-46228000D02*
X38798500Y-43815000D01*
X41211500Y-49403000D02*
X41211500Y-46228000D01*
D11*
X40149489Y-51769989D02*
X42100500Y-53721000D01*
X38712511Y-51769989D02*
X40149489Y-51769989D01*
X38478500Y-52004000D02*
X38712511Y-51769989D01*
D12*
X36248898Y-41783000D02*
X33708636Y-39242738D01*
X40703500Y-41783000D02*
X36248898Y-41783000D01*
X33591500Y-43897338D02*
X34297523Y-43191315D01*
X33591500Y-52197000D02*
X33591500Y-43897338D01*
G04 #@! TA.AperFunction,Conductor*
G36*
X33660189Y-40523651D02*
G01*
X33681163Y-40540554D01*
X34870849Y-41730240D01*
X34904875Y-41792552D01*
X34899810Y-41863367D01*
X34857263Y-41920203D01*
X34790743Y-41945014D01*
X34765308Y-41944257D01*
X34660084Y-41930404D01*
X34630294Y-41926482D01*
X34630293Y-41926482D01*
X34622105Y-41925404D01*
X34613917Y-41926482D01*
X34592315Y-41929326D01*
X34575868Y-41930404D01*
X34019178Y-41930404D01*
X34002731Y-41929326D01*
X33981129Y-41926482D01*
X33972941Y-41925404D01*
X33934963Y-41930404D01*
X33820315Y-41945498D01*
X33678091Y-42004409D01*
X33555960Y-42098123D01*
X33550938Y-42104668D01*
X33537664Y-42121967D01*
X33526796Y-42134358D01*
X32448754Y-43212400D01*
X32436364Y-43223267D01*
X32412519Y-43241564D01*
X32318805Y-43363695D01*
X32259894Y-43505919D01*
X32254337Y-43548126D01*
X32239800Y-43658545D01*
X32240878Y-43666733D01*
X32243722Y-43688335D01*
X32244800Y-43704782D01*
X32244800Y-45598283D01*
X32224798Y-45666404D01*
X32212436Y-45682593D01*
X32143679Y-45758956D01*
X32090463Y-45818058D01*
X31994976Y-45983446D01*
X31935962Y-46165073D01*
X31935272Y-46171636D01*
X31935272Y-46171637D01*
X31924488Y-46274237D01*
X31916000Y-46355000D01*
X31935962Y-46544927D01*
X31994976Y-46726554D01*
X32090463Y-46891942D01*
X32218249Y-47033863D01*
X32223591Y-47037744D01*
X32223593Y-47037746D01*
X32367408Y-47142233D01*
X32372750Y-47146114D01*
X32378778Y-47148798D01*
X32378780Y-47148799D01*
X32437377Y-47174888D01*
X32547213Y-47223790D01*
X32640613Y-47243643D01*
X32727556Y-47262124D01*
X32727561Y-47262124D01*
X32734013Y-47263496D01*
X32880800Y-47263496D01*
X32948921Y-47283498D01*
X32995414Y-47337154D01*
X33006800Y-47389496D01*
X33006800Y-51440283D01*
X32986798Y-51508404D01*
X32974436Y-51524593D01*
X32852463Y-51660058D01*
X32844248Y-51674287D01*
X32767038Y-51808019D01*
X32756976Y-51825446D01*
X32754934Y-51831731D01*
X32709499Y-51971567D01*
X32697962Y-52007073D01*
X32697272Y-52013636D01*
X32697272Y-52013637D01*
X32686063Y-52120282D01*
X32678000Y-52197000D01*
X32697962Y-52386927D01*
X32756976Y-52568554D01*
X32852463Y-52733942D01*
X32856881Y-52738849D01*
X32856882Y-52738850D01*
X32946941Y-52838871D01*
X32980249Y-52875863D01*
X32985591Y-52879744D01*
X32985593Y-52879746D01*
X33066298Y-52938381D01*
X33134750Y-52988114D01*
X33140778Y-52990798D01*
X33140780Y-52990799D01*
X33303182Y-53063105D01*
X33309213Y-53065790D01*
X33402613Y-53085643D01*
X33489556Y-53104124D01*
X33489561Y-53104124D01*
X33496013Y-53105496D01*
X33686987Y-53105496D01*
X33693439Y-53104124D01*
X33693444Y-53104124D01*
X33780387Y-53085643D01*
X33873787Y-53065790D01*
X33879818Y-53063105D01*
X34042220Y-52990799D01*
X34042222Y-52990798D01*
X34048250Y-52988114D01*
X34116702Y-52938381D01*
X34197407Y-52879746D01*
X34197409Y-52879744D01*
X34202751Y-52875863D01*
X34236059Y-52838871D01*
X34326118Y-52738850D01*
X34326119Y-52738849D01*
X34330537Y-52733942D01*
X34426024Y-52568554D01*
X34485038Y-52386927D01*
X34505000Y-52197000D01*
X34496937Y-52120282D01*
X34485728Y-52013637D01*
X34485728Y-52013636D01*
X34485038Y-52007073D01*
X34473502Y-51971567D01*
X34428066Y-51831731D01*
X34426024Y-51825446D01*
X34415963Y-51808019D01*
X34338752Y-51674287D01*
X34330537Y-51660058D01*
X34208564Y-51524593D01*
X34177846Y-51460586D01*
X34176200Y-51440283D01*
X34176200Y-46285056D01*
X34196202Y-46216935D01*
X34249858Y-46170442D01*
X34320132Y-46160338D01*
X34324622Y-46161259D01*
X34327874Y-46162606D01*
X34336058Y-46163683D01*
X34336060Y-46163684D01*
X34472312Y-46181622D01*
X34480500Y-46182700D01*
X34488688Y-46181622D01*
X34510290Y-46178778D01*
X34526737Y-46177700D01*
X36974263Y-46177700D01*
X36990710Y-46178778D01*
X37020500Y-46182700D01*
X37028688Y-46181622D01*
X37058478Y-46177700D01*
X37104530Y-46171637D01*
X37173126Y-46162606D01*
X37180756Y-46159445D01*
X37182889Y-46158874D01*
X37253866Y-46160564D01*
X37312661Y-46200358D01*
X37340609Y-46265623D01*
X37341500Y-46280581D01*
X37341500Y-51559513D01*
X37340067Y-51578463D01*
X37336965Y-51598854D01*
X37337558Y-51606146D01*
X37337558Y-51606149D01*
X37341085Y-51649510D01*
X37341500Y-51659724D01*
X37341500Y-51668386D01*
X37341924Y-51672020D01*
X37341924Y-51672024D01*
X37344951Y-51697983D01*
X37345384Y-51702362D01*
X37351300Y-51775105D01*
X37353556Y-51782068D01*
X37354732Y-51787956D01*
X37356130Y-51793873D01*
X37356978Y-51801143D01*
X37381887Y-51869767D01*
X37383304Y-51873895D01*
X37403542Y-51936368D01*
X37403544Y-51936373D01*
X37405798Y-51943330D01*
X37409593Y-51949584D01*
X37412101Y-51955062D01*
X37414815Y-51960481D01*
X37417313Y-51967364D01*
X37443348Y-52007073D01*
X37457335Y-52028407D01*
X37459682Y-52032127D01*
X37494622Y-52089708D01*
X37494625Y-52089712D01*
X37497534Y-52094506D01*
X37501249Y-52098712D01*
X37505751Y-52103810D01*
X37507972Y-52106394D01*
X37510255Y-52109124D01*
X37514269Y-52115247D01*
X37519584Y-52120282D01*
X37556191Y-52154960D01*
X37589371Y-52207497D01*
X37643976Y-52375554D01*
X37647279Y-52381276D01*
X37647280Y-52381277D01*
X37653208Y-52391545D01*
X37669944Y-52460541D01*
X37646721Y-52527632D01*
X37633182Y-52543637D01*
X34324163Y-55852656D01*
X34261266Y-55886808D01*
X34198213Y-55900210D01*
X34192183Y-55902895D01*
X34192182Y-55902895D01*
X34029780Y-55975201D01*
X34029778Y-55975202D01*
X34023750Y-55977886D01*
X34018409Y-55981766D01*
X34018408Y-55981767D01*
X33874593Y-56086254D01*
X33874591Y-56086256D01*
X33869249Y-56090137D01*
X33741463Y-56232058D01*
X33645976Y-56397446D01*
X33586962Y-56579073D01*
X33567000Y-56769000D01*
X33586962Y-56958927D01*
X33645976Y-57140554D01*
X33741463Y-57305942D01*
X33869249Y-57447863D01*
X33874591Y-57451744D01*
X33874593Y-57451746D01*
X34018408Y-57556233D01*
X34023750Y-57560114D01*
X34029778Y-57562798D01*
X34029780Y-57562799D01*
X34049972Y-57571789D01*
X34198213Y-57637790D01*
X34291613Y-57657643D01*
X34378556Y-57676124D01*
X34378561Y-57676124D01*
X34385013Y-57677496D01*
X34575987Y-57677496D01*
X34582439Y-57676124D01*
X34582444Y-57676124D01*
X34669387Y-57657643D01*
X34762787Y-57637790D01*
X34911028Y-57571789D01*
X34931220Y-57562799D01*
X34931222Y-57562798D01*
X34937250Y-57560114D01*
X34942592Y-57556233D01*
X35086407Y-57451746D01*
X35086409Y-57451744D01*
X35091751Y-57447863D01*
X35219537Y-57305942D01*
X35315024Y-57140554D01*
X35369881Y-56971721D01*
X35400619Y-56921562D01*
X38968178Y-53354003D01*
X38982589Y-53341618D01*
X38999206Y-53329389D01*
X39032118Y-53290649D01*
X39039048Y-53283133D01*
X39045166Y-53277015D01*
X39063669Y-53253628D01*
X39066441Y-53250248D01*
X39108956Y-53200205D01*
X39108957Y-53200203D01*
X39113697Y-53194624D01*
X39117027Y-53188103D01*
X39120355Y-53183112D01*
X39123547Y-53177943D01*
X39128094Y-53172197D01*
X39158991Y-53106090D01*
X39160916Y-53102151D01*
X39190788Y-53043651D01*
X39190789Y-53043649D01*
X39194115Y-53037135D01*
X39195854Y-53030030D01*
X39197956Y-53024377D01*
X39199869Y-53018627D01*
X39202967Y-53011998D01*
X39204456Y-53004838D01*
X39204460Y-53004827D01*
X39217839Y-52940507D01*
X39218809Y-52936220D01*
X39234810Y-52870828D01*
X39234811Y-52870822D01*
X39236145Y-52865370D01*
X39236914Y-52852976D01*
X39237171Y-52849579D01*
X39237487Y-52846039D01*
X39238978Y-52838871D01*
X39238748Y-52830354D01*
X39237046Y-52767484D01*
X39237000Y-52764075D01*
X39237000Y-52654489D01*
X39257002Y-52586368D01*
X39310658Y-52539875D01*
X39363000Y-52528489D01*
X39783118Y-52528489D01*
X39851239Y-52548491D01*
X39872213Y-52565394D01*
X41180381Y-53873562D01*
X41211119Y-53923721D01*
X41265976Y-54092554D01*
X41269279Y-54098276D01*
X41269280Y-54098277D01*
X41291558Y-54136863D01*
X41361463Y-54257942D01*
X41365881Y-54262849D01*
X41365882Y-54262850D01*
X41484827Y-54394952D01*
X41489249Y-54399863D01*
X41494591Y-54403744D01*
X41494593Y-54403746D01*
X41638408Y-54508233D01*
X41643750Y-54512114D01*
X41649778Y-54514798D01*
X41649780Y-54514799D01*
X41812182Y-54587105D01*
X41818213Y-54589790D01*
X41911613Y-54609643D01*
X41998556Y-54628124D01*
X41998561Y-54628124D01*
X42005013Y-54629496D01*
X42195987Y-54629496D01*
X42202439Y-54628124D01*
X42202444Y-54628124D01*
X42289387Y-54609643D01*
X42382787Y-54589790D01*
X42388818Y-54587105D01*
X42551220Y-54514799D01*
X42551222Y-54514798D01*
X42557250Y-54512114D01*
X42562592Y-54508233D01*
X42706407Y-54403746D01*
X42706409Y-54403744D01*
X42711751Y-54399863D01*
X42716173Y-54394952D01*
X42835118Y-54262850D01*
X42835119Y-54262849D01*
X42839537Y-54257942D01*
X42909442Y-54136863D01*
X42931720Y-54098277D01*
X42931721Y-54098276D01*
X42935024Y-54092554D01*
X42994038Y-53910927D01*
X43014000Y-53721000D01*
X42994038Y-53531073D01*
X42979786Y-53487208D01*
X42937066Y-53355731D01*
X42935024Y-53349446D01*
X42907695Y-53302110D01*
X42842838Y-53189776D01*
X42839537Y-53184058D01*
X42767545Y-53104102D01*
X42716173Y-53047048D01*
X42716172Y-53047047D01*
X42711751Y-53042137D01*
X42706409Y-53038256D01*
X42706407Y-53038254D01*
X42562592Y-52933767D01*
X42562591Y-52933766D01*
X42557250Y-52929886D01*
X42551222Y-52927202D01*
X42551220Y-52927201D01*
X42388818Y-52854895D01*
X42388817Y-52854895D01*
X42382787Y-52852210D01*
X42319734Y-52838808D01*
X42256837Y-52804656D01*
X40732492Y-51280311D01*
X40720104Y-51265897D01*
X40712218Y-51255181D01*
X40707878Y-51249283D01*
X40669139Y-51216371D01*
X40661622Y-51209441D01*
X40655505Y-51203324D01*
X40652632Y-51201051D01*
X40652623Y-51201043D01*
X40632146Y-51184843D01*
X40628742Y-51182052D01*
X40578695Y-51139534D01*
X40578693Y-51139533D01*
X40573113Y-51134792D01*
X40566595Y-51131464D01*
X40561570Y-51128112D01*
X40556425Y-51124935D01*
X40550687Y-51120395D01*
X40523478Y-51107678D01*
X40484584Y-51089500D01*
X40480634Y-51087569D01*
X40422144Y-51057703D01*
X40422142Y-51057702D01*
X40415624Y-51054374D01*
X40408517Y-51052635D01*
X40402866Y-51050533D01*
X40397116Y-51048620D01*
X40390487Y-51045522D01*
X40383327Y-51044033D01*
X40383316Y-51044029D01*
X40318996Y-51030650D01*
X40314709Y-51029680D01*
X40249317Y-51013679D01*
X40249311Y-51013678D01*
X40243859Y-51012344D01*
X40238255Y-51011996D01*
X40238253Y-51011996D01*
X40231465Y-51011575D01*
X40228068Y-51011318D01*
X40224528Y-51011002D01*
X40217360Y-51009511D01*
X40210043Y-51009709D01*
X40161950Y-51011011D01*
X40150592Y-51011318D01*
X40145973Y-51011443D01*
X40142564Y-51011489D01*
X38984500Y-51011489D01*
X38916379Y-50991487D01*
X38869886Y-50937831D01*
X38858500Y-50885489D01*
X38858500Y-46193492D01*
X38875381Y-46130492D01*
X38890853Y-46103695D01*
X38907204Y-46075374D01*
X38931220Y-46033777D01*
X38931221Y-46033776D01*
X38934524Y-46028054D01*
X38993538Y-45846427D01*
X38996572Y-45817565D01*
X39012810Y-45663065D01*
X39013500Y-45656500D01*
X39008217Y-45606232D01*
X38994228Y-45473137D01*
X38994228Y-45473136D01*
X38993538Y-45466573D01*
X38934524Y-45284946D01*
X38842039Y-45124757D01*
X38825301Y-45055763D01*
X38842039Y-44998758D01*
X38867717Y-44954283D01*
X38867719Y-44954278D01*
X38871024Y-44948554D01*
X38871861Y-44949037D01*
X38914039Y-44899411D01*
X38981965Y-44878758D01*
X39050274Y-44898107D01*
X39072266Y-44915657D01*
X40589895Y-46433286D01*
X40623921Y-46495598D01*
X40626800Y-46522381D01*
X40626800Y-48646283D01*
X40606798Y-48714404D01*
X40594436Y-48730593D01*
X40472463Y-48866058D01*
X40376976Y-49031446D01*
X40317962Y-49213073D01*
X40298000Y-49403000D01*
X40317962Y-49592927D01*
X40376976Y-49774554D01*
X40472463Y-49939942D01*
X40476881Y-49944849D01*
X40476882Y-49944850D01*
X40569853Y-50048105D01*
X40600249Y-50081863D01*
X40605591Y-50085744D01*
X40605593Y-50085746D01*
X40749408Y-50190233D01*
X40754750Y-50194114D01*
X40760778Y-50196798D01*
X40760780Y-50196799D01*
X40923182Y-50269105D01*
X40929213Y-50271790D01*
X41022613Y-50291643D01*
X41109556Y-50310124D01*
X41109561Y-50310124D01*
X41116013Y-50311496D01*
X41306987Y-50311496D01*
X41313439Y-50310124D01*
X41313444Y-50310124D01*
X41400387Y-50291643D01*
X41493787Y-50271790D01*
X41499818Y-50269105D01*
X41662220Y-50196799D01*
X41662222Y-50196798D01*
X41668250Y-50194114D01*
X41673592Y-50190233D01*
X41817407Y-50085746D01*
X41817409Y-50085744D01*
X41822751Y-50081863D01*
X41853147Y-50048105D01*
X41946118Y-49944850D01*
X41946119Y-49944849D01*
X41950537Y-49939942D01*
X42046024Y-49774554D01*
X42105038Y-49592927D01*
X42125000Y-49403000D01*
X42105038Y-49213073D01*
X42046024Y-49031446D01*
X41950537Y-48866058D01*
X41828564Y-48730593D01*
X41797846Y-48666586D01*
X41796200Y-48646283D01*
X41796200Y-46274237D01*
X41797278Y-46257790D01*
X41800122Y-46236188D01*
X41801200Y-46228000D01*
X41781106Y-46075374D01*
X41722195Y-45933150D01*
X41651800Y-45841409D01*
X41628481Y-45811019D01*
X41604636Y-45792722D01*
X41592246Y-45781855D01*
X39746260Y-43935869D01*
X39712234Y-43873557D01*
X39710045Y-43833606D01*
X39711310Y-43821568D01*
X39711310Y-43821565D01*
X39712000Y-43815000D01*
X39696417Y-43666733D01*
X39692728Y-43631637D01*
X39692728Y-43631636D01*
X39692038Y-43625073D01*
X39667037Y-43548126D01*
X39635066Y-43449731D01*
X39633024Y-43443446D01*
X39537537Y-43278058D01*
X39478419Y-43212400D01*
X39414173Y-43141048D01*
X39414172Y-43141047D01*
X39409751Y-43136137D01*
X39404409Y-43132256D01*
X39404407Y-43132254D01*
X39260592Y-43027767D01*
X39260591Y-43027766D01*
X39255250Y-43023886D01*
X39249222Y-43021202D01*
X39249220Y-43021201D01*
X39086818Y-42948895D01*
X39086817Y-42948895D01*
X39080787Y-42946210D01*
X38987387Y-42926357D01*
X38900444Y-42907876D01*
X38900439Y-42907876D01*
X38893987Y-42906504D01*
X38703013Y-42906504D01*
X38696561Y-42907876D01*
X38696556Y-42907876D01*
X38609613Y-42926357D01*
X38516213Y-42946210D01*
X38510183Y-42948895D01*
X38510182Y-42948895D01*
X38347780Y-43021201D01*
X38347778Y-43021202D01*
X38341750Y-43023886D01*
X38336409Y-43027766D01*
X38336408Y-43027767D01*
X38192593Y-43132254D01*
X38192591Y-43132256D01*
X38187249Y-43136137D01*
X38182828Y-43141047D01*
X38182827Y-43141048D01*
X38118582Y-43212400D01*
X38059463Y-43278058D01*
X37963976Y-43443446D01*
X37931596Y-43543104D01*
X37909609Y-43610772D01*
X37869536Y-43669378D01*
X37815973Y-43695083D01*
X37792547Y-43700062D01*
X37760671Y-43706837D01*
X37760668Y-43706838D01*
X37754213Y-43708210D01*
X37748183Y-43710895D01*
X37748182Y-43710895D01*
X37585780Y-43783201D01*
X37585778Y-43783202D01*
X37579750Y-43785886D01*
X37574409Y-43789766D01*
X37574408Y-43789767D01*
X37430593Y-43894254D01*
X37430591Y-43894256D01*
X37425249Y-43898137D01*
X37420828Y-43903047D01*
X37420827Y-43903048D01*
X37330754Y-44003085D01*
X37297463Y-44040058D01*
X37294162Y-44045776D01*
X37210105Y-44191367D01*
X37201976Y-44205446D01*
X37199934Y-44211731D01*
X37152090Y-44358981D01*
X37142962Y-44387073D01*
X37123000Y-44577000D01*
X37123690Y-44583565D01*
X37123690Y-44583568D01*
X37124955Y-44595606D01*
X37112182Y-44665444D01*
X37088740Y-44697869D01*
X36815214Y-44971395D01*
X36752902Y-45005421D01*
X36726119Y-45008300D01*
X36023302Y-45008300D01*
X35955181Y-44988298D01*
X35908688Y-44934642D01*
X35897992Y-44869130D01*
X35902000Y-44831000D01*
X35901198Y-44823367D01*
X35900045Y-44812394D01*
X35912818Y-44742556D01*
X35936260Y-44710131D01*
X36258246Y-44388145D01*
X36270637Y-44377277D01*
X36287936Y-44364003D01*
X36294481Y-44358981D01*
X36388195Y-44236850D01*
X36447106Y-44094626D01*
X36462200Y-43979978D01*
X36467200Y-43942000D01*
X36463278Y-43912210D01*
X36462200Y-43895763D01*
X36462200Y-42493700D01*
X36482202Y-42425579D01*
X36535858Y-42379086D01*
X36588200Y-42367700D01*
X40205365Y-42367700D01*
X40273486Y-42387702D01*
X40299001Y-42409389D01*
X40346249Y-42461863D01*
X40500750Y-42574114D01*
X40506778Y-42576798D01*
X40506780Y-42576799D01*
X40669182Y-42649105D01*
X40675213Y-42651790D01*
X40768613Y-42671643D01*
X40855556Y-42690124D01*
X40855561Y-42690124D01*
X40862013Y-42691496D01*
X41052987Y-42691496D01*
X41059439Y-42690124D01*
X41059444Y-42690124D01*
X41146387Y-42671643D01*
X41239787Y-42651790D01*
X41245818Y-42649105D01*
X41408220Y-42576799D01*
X41408222Y-42576798D01*
X41414250Y-42574114D01*
X41524931Y-42493700D01*
X41563407Y-42465746D01*
X41563409Y-42465744D01*
X41568751Y-42461863D01*
X41696537Y-42319942D01*
X41792024Y-42154554D01*
X41838980Y-42010037D01*
X41848196Y-41981674D01*
X41888269Y-41923068D01*
X41953666Y-41895431D01*
X42023623Y-41907538D01*
X42057124Y-41931515D01*
X45089740Y-44964131D01*
X45123766Y-45026443D01*
X45125955Y-45066394D01*
X45124690Y-45078432D01*
X45124000Y-45085000D01*
X45143962Y-45274927D01*
X45146002Y-45281205D01*
X45146002Y-45281206D01*
X45166914Y-45345565D01*
X45202976Y-45456554D01*
X45206279Y-45462276D01*
X45206280Y-45462277D01*
X45208302Y-45465779D01*
X45298463Y-45621942D01*
X45302881Y-45626849D01*
X45302882Y-45626850D01*
X45421827Y-45758952D01*
X45426249Y-45763863D01*
X45431591Y-45767744D01*
X45431593Y-45767746D01*
X45532982Y-45841409D01*
X45580750Y-45876114D01*
X45586778Y-45878798D01*
X45586780Y-45878799D01*
X45725992Y-45940780D01*
X45755213Y-45953790D01*
X45848613Y-45973643D01*
X45935556Y-45992124D01*
X45935561Y-45992124D01*
X45942013Y-45993496D01*
X46132987Y-45993496D01*
X46139439Y-45992124D01*
X46139444Y-45992124D01*
X46226387Y-45973643D01*
X46319787Y-45953790D01*
X46349008Y-45940780D01*
X46488220Y-45878799D01*
X46488222Y-45878798D01*
X46494250Y-45876114D01*
X46542018Y-45841409D01*
X46643407Y-45767746D01*
X46643409Y-45767744D01*
X46648751Y-45763863D01*
X46736494Y-45666414D01*
X46796939Y-45629176D01*
X46867923Y-45630528D01*
X46926907Y-45670042D01*
X46955165Y-45735172D01*
X46955011Y-45767471D01*
X46914743Y-46067743D01*
X46894437Y-46219166D01*
X46894036Y-46221924D01*
X46872142Y-46361565D01*
X46862357Y-46423971D01*
X46861900Y-46426692D01*
X46847144Y-46508834D01*
X46746074Y-47071454D01*
X46745548Y-47074203D01*
X46704915Y-47274695D01*
X46704337Y-47277396D01*
X46681442Y-47378745D01*
X46559994Y-47916335D01*
X46559354Y-47919029D01*
X46521402Y-48071211D01*
X46509850Y-48117534D01*
X46509142Y-48120242D01*
X46336572Y-48752092D01*
X46335805Y-48754784D01*
X46277524Y-48950920D01*
X46276696Y-48953595D01*
X46076244Y-49577106D01*
X46075358Y-49579761D01*
X46008423Y-49773113D01*
X46007478Y-49775748D01*
X45779516Y-50389769D01*
X45778513Y-50392382D01*
X45703058Y-50582562D01*
X45702010Y-50585119D01*
X45446971Y-51188468D01*
X45445882Y-51190968D01*
X45437585Y-51209441D01*
X45362051Y-51377613D01*
X45360876Y-51380154D01*
X45079286Y-51971581D01*
X45078062Y-51974080D01*
X44986010Y-52156843D01*
X44984815Y-52159151D01*
X44775731Y-52552280D01*
X44677172Y-52737595D01*
X44675830Y-52740052D01*
X44575824Y-52918414D01*
X44574428Y-52920840D01*
X44566798Y-52933767D01*
X44241453Y-53484949D01*
X44240087Y-53487208D01*
X44132093Y-53661215D01*
X44130666Y-53663458D01*
X43847232Y-54098277D01*
X43772964Y-54212213D01*
X43771409Y-54214541D01*
X43655909Y-54383408D01*
X43654328Y-54385665D01*
X43507952Y-54589790D01*
X43272608Y-54917982D01*
X43270952Y-54920239D01*
X43148099Y-55083763D01*
X43146399Y-55085974D01*
X42741361Y-55600870D01*
X42739672Y-55602968D01*
X42654389Y-55706561D01*
X42609621Y-55760940D01*
X42607818Y-55763081D01*
X42180430Y-56259335D01*
X42178590Y-56261425D01*
X42041629Y-56413488D01*
X42039766Y-56415511D01*
X41590714Y-56892335D01*
X41588779Y-56894344D01*
X41445183Y-57040186D01*
X41443198Y-57042159D01*
X41156051Y-57321125D01*
X40973427Y-57498546D01*
X40971453Y-57500421D01*
X40916899Y-57551114D01*
X40821533Y-57639729D01*
X40819462Y-57641611D01*
X40329882Y-58076679D01*
X40327768Y-58078516D01*
X40171836Y-58211003D01*
X40169683Y-58212791D01*
X39661321Y-58625633D01*
X39659128Y-58627374D01*
X39497356Y-58752889D01*
X39495183Y-58754538D01*
X38968889Y-59144458D01*
X38966675Y-59146060D01*
X38799572Y-59264205D01*
X38797334Y-59265751D01*
X38480872Y-59479111D01*
X38254247Y-59631902D01*
X38251909Y-59633441D01*
X38079684Y-59744071D01*
X38077312Y-59745557D01*
X37778327Y-59928359D01*
X37518603Y-60087157D01*
X37516246Y-60088563D01*
X37339238Y-60191456D01*
X37336802Y-60192836D01*
X36763384Y-60509326D01*
X36760918Y-60510651D01*
X36570920Y-60610077D01*
X36501290Y-60623939D01*
X36454082Y-60610078D01*
X36333085Y-60546760D01*
X36264063Y-60510641D01*
X36261598Y-60509316D01*
X35688173Y-60192821D01*
X35685737Y-60191441D01*
X35508812Y-60088596D01*
X35506408Y-60087162D01*
X35316451Y-59971021D01*
X34947650Y-59745533D01*
X34945317Y-59744071D01*
X34773014Y-59633391D01*
X34770837Y-59631957D01*
X34227693Y-59265768D01*
X34225429Y-59264205D01*
X34058381Y-59146099D01*
X34056113Y-59144458D01*
X33529819Y-58754538D01*
X33527588Y-58752846D01*
X33365907Y-58627401D01*
X33363715Y-58625661D01*
X32962435Y-58299783D01*
X32855279Y-58212761D01*
X32853210Y-58211043D01*
X32697232Y-58078516D01*
X32695134Y-58076692D01*
X32244374Y-57676124D01*
X32205534Y-57641608D01*
X32203469Y-57639732D01*
X32053608Y-57500477D01*
X32051578Y-57498549D01*
X31581772Y-57042129D01*
X31579787Y-57040156D01*
X31436229Y-56894352D01*
X31434322Y-56892373D01*
X31133357Y-56572794D01*
X30985268Y-56415546D01*
X30983372Y-56413488D01*
X30909382Y-56331341D01*
X30846378Y-56261390D01*
X30844570Y-56259335D01*
X30417163Y-55763059D01*
X30415431Y-55761004D01*
X30285328Y-55602968D01*
X30283574Y-55600787D01*
X29878637Y-55086021D01*
X29876930Y-55083802D01*
X29754040Y-54920228D01*
X29752384Y-54917971D01*
X29370672Y-54385665D01*
X29369066Y-54383372D01*
X29286632Y-54262850D01*
X29253599Y-54214554D01*
X29252049Y-54212233D01*
X29204760Y-54139686D01*
X28894352Y-53663486D01*
X28892926Y-53661245D01*
X28784928Y-53487232D01*
X28783524Y-53484911D01*
X28707375Y-53355902D01*
X28559568Y-53105496D01*
X28450567Y-52920831D01*
X28449171Y-52918405D01*
X28349159Y-52740033D01*
X28347817Y-52737576D01*
X28236615Y-52528489D01*
X28040213Y-52159204D01*
X28038948Y-52156760D01*
X28038937Y-52156737D01*
X28020575Y-52120282D01*
X27946939Y-51974080D01*
X27945707Y-51971567D01*
X27692752Y-51440283D01*
X27664112Y-51380130D01*
X27662959Y-51377636D01*
X27579117Y-51190965D01*
X27578010Y-51188425D01*
X27575918Y-51183474D01*
X27322990Y-50585119D01*
X27321942Y-50582562D01*
X27246478Y-50392359D01*
X27245501Y-50389814D01*
X27017518Y-49775736D01*
X27016573Y-49773101D01*
X26949655Y-49579800D01*
X26948768Y-49577145D01*
X26748278Y-48953514D01*
X26747458Y-48950861D01*
X26689195Y-48754782D01*
X26688428Y-48752090D01*
X26594656Y-48408753D01*
X26515849Y-48120211D01*
X26515168Y-48117606D01*
X26465640Y-47919004D01*
X26465008Y-47916344D01*
X26465006Y-47916335D01*
X26320652Y-47277345D01*
X26320085Y-47274695D01*
X26279449Y-47074191D01*
X26278923Y-47071442D01*
X26163112Y-46426755D01*
X26162648Y-46423995D01*
X26134974Y-46247496D01*
X26130961Y-46221906D01*
X26130561Y-46219153D01*
X26123309Y-46165073D01*
X26118821Y-46131608D01*
X26129591Y-46061434D01*
X26176591Y-46008222D01*
X26244899Y-45988868D01*
X26312827Y-46009515D01*
X26322325Y-46016839D01*
X26323247Y-46017863D01*
X26328589Y-46021744D01*
X26328591Y-46021746D01*
X26431405Y-46096444D01*
X26477748Y-46130114D01*
X26483776Y-46132798D01*
X26483778Y-46132799D01*
X26595858Y-46182700D01*
X26652211Y-46207790D01*
X26718706Y-46221924D01*
X26832554Y-46246124D01*
X26832559Y-46246124D01*
X26839011Y-46247496D01*
X27029985Y-46247496D01*
X27036437Y-46246124D01*
X27036442Y-46246124D01*
X27150290Y-46221924D01*
X27216785Y-46207790D01*
X27273138Y-46182700D01*
X27385218Y-46132799D01*
X27385220Y-46132798D01*
X27391248Y-46130114D01*
X27437591Y-46096444D01*
X27540405Y-46021746D01*
X27540407Y-46021744D01*
X27545749Y-46017863D01*
X27567689Y-45993496D01*
X27669116Y-45880850D01*
X27669117Y-45880849D01*
X27673535Y-45875942D01*
X27769022Y-45710554D01*
X27828036Y-45528927D01*
X27847998Y-45339000D01*
X27828036Y-45149073D01*
X27807218Y-45085000D01*
X27771064Y-44973731D01*
X27769022Y-44967446D01*
X27760976Y-44953509D01*
X27694034Y-44837563D01*
X27673535Y-44802058D01*
X27587340Y-44706328D01*
X27551562Y-44666593D01*
X27520844Y-44602586D01*
X27519198Y-44582283D01*
X27519198Y-44259488D01*
X27539200Y-44191367D01*
X27556103Y-44170393D01*
X31161883Y-40564613D01*
X31224195Y-40530587D01*
X31295010Y-40535652D01*
X31344616Y-40569400D01*
X31365775Y-40592901D01*
X31365781Y-40592906D01*
X31370198Y-40597812D01*
X31375540Y-40601693D01*
X31375542Y-40601695D01*
X31519357Y-40706182D01*
X31524699Y-40710063D01*
X31530727Y-40712747D01*
X31530729Y-40712748D01*
X31693131Y-40785054D01*
X31699162Y-40787739D01*
X31792562Y-40807592D01*
X31879505Y-40826073D01*
X31879510Y-40826073D01*
X31885962Y-40827445D01*
X32076936Y-40827445D01*
X32083388Y-40826073D01*
X32083393Y-40826073D01*
X32170336Y-40807592D01*
X32263736Y-40787739D01*
X32269767Y-40785054D01*
X32432169Y-40712748D01*
X32432171Y-40712747D01*
X32438199Y-40710063D01*
X32592700Y-40597812D01*
X32618283Y-40569400D01*
X32639948Y-40545338D01*
X32700394Y-40508099D01*
X32733584Y-40503649D01*
X33592068Y-40503649D01*
X33660189Y-40523651D01*
G37*
G04 #@! TD.AperFunction*
G04 #@! TA.AperFunction,Conductor*
G36*
X36570920Y-26003923D02*
G01*
X36760923Y-26103352D01*
X36763389Y-26104677D01*
X37336832Y-26421182D01*
X37339267Y-26422562D01*
X37516190Y-26525405D01*
X37518595Y-26526839D01*
X38077298Y-26868435D01*
X38079670Y-26869921D01*
X38251915Y-26980564D01*
X38254253Y-26982103D01*
X38797284Y-27348216D01*
X38799588Y-27349807D01*
X38966710Y-27467965D01*
X38968928Y-27469571D01*
X39220136Y-27655686D01*
X39495141Y-27859432D01*
X39497371Y-27861123D01*
X39659097Y-27986602D01*
X39661290Y-27988342D01*
X40169729Y-28401245D01*
X40171782Y-28402950D01*
X40327753Y-28535471D01*
X40329865Y-28537307D01*
X40522619Y-28708598D01*
X40819499Y-28972421D01*
X40821506Y-28974245D01*
X40970222Y-29112436D01*
X40971432Y-29113560D01*
X40973457Y-29115484D01*
X41443224Y-29571865D01*
X41445139Y-29573767D01*
X41552059Y-29682361D01*
X41588758Y-29719635D01*
X41590700Y-29721651D01*
X42039745Y-30198467D01*
X42041641Y-30200526D01*
X42178559Y-30352541D01*
X42180409Y-30354642D01*
X42607830Y-30850933D01*
X42609626Y-30853065D01*
X42739673Y-31011033D01*
X42741357Y-31013124D01*
X42861250Y-31165536D01*
X43146400Y-31528028D01*
X43148106Y-31530247D01*
X43270958Y-31693769D01*
X43272610Y-31696020D01*
X43654357Y-32228375D01*
X43655870Y-32230534D01*
X43771442Y-32399506D01*
X43772965Y-32401788D01*
X44130616Y-32950466D01*
X44132118Y-32952827D01*
X44240041Y-33126718D01*
X44241480Y-33129096D01*
X44349374Y-33311885D01*
X44574425Y-33693155D01*
X44575821Y-33695581D01*
X44675833Y-33873952D01*
X44677162Y-33876385D01*
X44984788Y-34454797D01*
X44986053Y-34457242D01*
X45078061Y-34639920D01*
X45079293Y-34642433D01*
X45205865Y-34908273D01*
X45360876Y-35233844D01*
X45360877Y-35233847D01*
X45362041Y-35236364D01*
X45445883Y-35423035D01*
X45446978Y-35425548D01*
X45593380Y-35771892D01*
X45702010Y-36028881D01*
X45703046Y-36031407D01*
X45778522Y-36221641D01*
X45779499Y-36224186D01*
X46007482Y-36838264D01*
X46008427Y-36840899D01*
X46075359Y-37034242D01*
X46076245Y-37036897D01*
X46276698Y-37660412D01*
X46277526Y-37663087D01*
X46335807Y-37859224D01*
X46336574Y-37861916D01*
X46509142Y-38493759D01*
X46509850Y-38496467D01*
X46559344Y-38694931D01*
X46559991Y-38697655D01*
X46704333Y-39336589D01*
X46704919Y-39339326D01*
X46745553Y-39539820D01*
X46746079Y-39542570D01*
X46861892Y-40187271D01*
X46862356Y-40190031D01*
X46871922Y-40251037D01*
X46888779Y-40358544D01*
X46894033Y-40392055D01*
X46894430Y-40394783D01*
X46981500Y-41044059D01*
X46981837Y-41046804D01*
X46998737Y-41198300D01*
X47004516Y-41250110D01*
X47004796Y-41252896D01*
X47062937Y-41905395D01*
X47063154Y-41908185D01*
X47076772Y-42112175D01*
X47076927Y-42114954D01*
X47085788Y-42314224D01*
X47106028Y-42769421D01*
X47106121Y-42772219D01*
X47110665Y-42976712D01*
X47110696Y-42979511D01*
X47110696Y-43634489D01*
X47110665Y-43637288D01*
X47106120Y-43841801D01*
X47106027Y-43844599D01*
X47076930Y-44498999D01*
X47076774Y-44501795D01*
X47070495Y-44595849D01*
X47046000Y-44662486D01*
X46989366Y-44705302D01*
X46918576Y-44710702D01*
X46856103Y-44676973D01*
X46835659Y-44650459D01*
X46776537Y-44548058D01*
X46648751Y-44406137D01*
X46643409Y-44402256D01*
X46643407Y-44402254D01*
X46499592Y-44297767D01*
X46499591Y-44297766D01*
X46494250Y-44293886D01*
X46488222Y-44291202D01*
X46488220Y-44291201D01*
X46325818Y-44218895D01*
X46325817Y-44218895D01*
X46319787Y-44216210D01*
X46226387Y-44196357D01*
X46139444Y-44177876D01*
X46139439Y-44177876D01*
X46132987Y-44176504D01*
X46008085Y-44176504D01*
X45939964Y-44156502D01*
X45918990Y-44139599D01*
X42323634Y-40544243D01*
X42312766Y-40531852D01*
X42299492Y-40514553D01*
X42294470Y-40508008D01*
X42172339Y-40414294D01*
X42030115Y-40355383D01*
X41915467Y-40340289D01*
X41877489Y-40335289D01*
X41869301Y-40336367D01*
X41847699Y-40339211D01*
X41831252Y-40340289D01*
X41074635Y-40340289D01*
X41006514Y-40320287D01*
X40980999Y-40298600D01*
X40938166Y-40251029D01*
X40938164Y-40251028D01*
X40933751Y-40246126D01*
X40928406Y-40242243D01*
X40784592Y-40137756D01*
X40784591Y-40137755D01*
X40779250Y-40133875D01*
X40773222Y-40131191D01*
X40773220Y-40131190D01*
X40610818Y-40058884D01*
X40610817Y-40058884D01*
X40604787Y-40056199D01*
X40511387Y-40036346D01*
X40424444Y-40017865D01*
X40424439Y-40017865D01*
X40417987Y-40016493D01*
X40227013Y-40016493D01*
X40220561Y-40017865D01*
X40220556Y-40017865D01*
X40133613Y-40036346D01*
X40040213Y-40056199D01*
X40034183Y-40058884D01*
X40034182Y-40058884D01*
X39871780Y-40131190D01*
X39871778Y-40131191D01*
X39865750Y-40133875D01*
X39860409Y-40137755D01*
X39860408Y-40137756D01*
X39716593Y-40242243D01*
X39716591Y-40242245D01*
X39711249Y-40246126D01*
X39706828Y-40251036D01*
X39706827Y-40251037D01*
X39610028Y-40358544D01*
X39583463Y-40388047D01*
X39580162Y-40393765D01*
X39496658Y-40538398D01*
X39487976Y-40553435D01*
X39428962Y-40735062D01*
X39409000Y-40924989D01*
X39421804Y-41046804D01*
X39423099Y-41059129D01*
X39410327Y-41128968D01*
X39361825Y-41180814D01*
X39297789Y-41198300D01*
X36543279Y-41198300D01*
X36475158Y-41178298D01*
X36454184Y-41161395D01*
X34154781Y-38861992D01*
X34143913Y-38849601D01*
X34130639Y-38832302D01*
X34125617Y-38825757D01*
X34003486Y-38732043D01*
X33861262Y-38673132D01*
X33746614Y-38658038D01*
X33708636Y-38653038D01*
X33700448Y-38654116D01*
X33678846Y-38656960D01*
X33662399Y-38658038D01*
X31703104Y-38658038D01*
X31686657Y-38656960D01*
X31665055Y-38654116D01*
X31656867Y-38653038D01*
X31618889Y-38658038D01*
X31504241Y-38673132D01*
X31362017Y-38732043D01*
X31239886Y-38825757D01*
X31234864Y-38832302D01*
X31221590Y-38849601D01*
X31210722Y-38861992D01*
X26553752Y-43518962D01*
X26541362Y-43529829D01*
X26517517Y-43548126D01*
X26423803Y-43670257D01*
X26365435Y-43811170D01*
X26364892Y-43812482D01*
X26344798Y-43965107D01*
X26345876Y-43973295D01*
X26348720Y-43994897D01*
X26349798Y-44011344D01*
X26349798Y-44582283D01*
X26329796Y-44650404D01*
X26317434Y-44666593D01*
X26199883Y-44797146D01*
X26199880Y-44797150D01*
X26195461Y-44802058D01*
X26192481Y-44807220D01*
X26136447Y-44850426D01*
X26065711Y-44856500D01*
X26002920Y-44823367D01*
X25968010Y-44761546D01*
X25965234Y-44744202D01*
X25962055Y-44708519D01*
X25961850Y-44705884D01*
X25948226Y-44501795D01*
X25948072Y-44499033D01*
X25948071Y-44498999D01*
X25921181Y-43894254D01*
X25918972Y-43844579D01*
X25918879Y-43841781D01*
X25914335Y-43637288D01*
X25914304Y-43634489D01*
X25914304Y-42979511D01*
X25914335Y-42976712D01*
X25918879Y-42772207D01*
X25918972Y-42769409D01*
X25948074Y-42114939D01*
X25948229Y-42112159D01*
X25955086Y-42009436D01*
X25961850Y-41908115D01*
X25962057Y-41905451D01*
X26020204Y-41252896D01*
X26020482Y-41250132D01*
X26043163Y-41046804D01*
X26043504Y-41044026D01*
X26130563Y-40394834D01*
X26130966Y-40392063D01*
X26162644Y-40190027D01*
X26163108Y-40187267D01*
X26278926Y-39542541D01*
X26279452Y-39539792D01*
X26320093Y-39339265D01*
X26320666Y-39336589D01*
X26465008Y-38697655D01*
X26465650Y-38694954D01*
X26515156Y-38496442D01*
X26515864Y-38493734D01*
X26688434Y-37861885D01*
X26689175Y-37859284D01*
X26747474Y-37663087D01*
X26748279Y-37660484D01*
X26948769Y-37036852D01*
X26949656Y-37034197D01*
X26952157Y-37026974D01*
X26968513Y-36979727D01*
X27016577Y-36840887D01*
X27017522Y-36838252D01*
X27245484Y-36224231D01*
X27246487Y-36221618D01*
X27321942Y-36031438D01*
X27323004Y-36028847D01*
X27396533Y-35854899D01*
X27578029Y-35425532D01*
X27579104Y-35423063D01*
X27662954Y-35236376D01*
X27664125Y-35233844D01*
X27945706Y-34642435D01*
X27946938Y-34639921D01*
X28038947Y-34457242D01*
X28040234Y-34454756D01*
X28052244Y-34432174D01*
X28347825Y-33876409D01*
X28349152Y-33873979D01*
X28449174Y-33695589D01*
X28450570Y-33693163D01*
X28759243Y-33170225D01*
X31556199Y-33170225D01*
X31558325Y-33286250D01*
X31564283Y-33611325D01*
X31611547Y-34049961D01*
X31612093Y-34052707D01*
X31612094Y-34052712D01*
X31692066Y-34454756D01*
X31697616Y-34482659D01*
X31821809Y-34905993D01*
X31822829Y-34908589D01*
X31822830Y-34908592D01*
X31951618Y-35236376D01*
X31983142Y-35316610D01*
X32037592Y-35425582D01*
X32158808Y-35668174D01*
X32180337Y-35711261D01*
X32411835Y-36086819D01*
X32675800Y-36440312D01*
X32677661Y-36442390D01*
X32677662Y-36442391D01*
X32819787Y-36601070D01*
X32970144Y-36768941D01*
X32972181Y-36770844D01*
X32972188Y-36770851D01*
X33149832Y-36936796D01*
X33292537Y-37070103D01*
X33294734Y-37071816D01*
X33294737Y-37071819D01*
X33378656Y-37137265D01*
X33640424Y-37341414D01*
X33781428Y-37432459D01*
X34008708Y-37579212D01*
X34008716Y-37579217D01*
X34011052Y-37580725D01*
X34401486Y-37786143D01*
X34404079Y-37787225D01*
X34806051Y-37954961D01*
X34806056Y-37954963D01*
X34808635Y-37956039D01*
X34811300Y-37956882D01*
X34811306Y-37956884D01*
X35040421Y-38029343D01*
X35229275Y-38089070D01*
X35232005Y-38089673D01*
X35232006Y-38089673D01*
X35618433Y-38174988D01*
X35660076Y-38184182D01*
X35662850Y-38184540D01*
X35662851Y-38184540D01*
X36094855Y-38240265D01*
X36094862Y-38240266D01*
X36097625Y-38240622D01*
X36100412Y-38240732D01*
X36100418Y-38240732D01*
X36355821Y-38250766D01*
X36538460Y-38257942D01*
X36541252Y-38257803D01*
X36541257Y-38257803D01*
X36976285Y-38236146D01*
X36976294Y-38236145D01*
X36979089Y-38236006D01*
X36981866Y-38235618D01*
X36981868Y-38235618D01*
X37057495Y-38225057D01*
X37416024Y-38174988D01*
X37418734Y-38174360D01*
X37418744Y-38174358D01*
X37843077Y-38076002D01*
X37845804Y-38075370D01*
X38066032Y-38003176D01*
X38262375Y-37938812D01*
X38262381Y-37938810D01*
X38265028Y-37937942D01*
X38670376Y-37763790D01*
X38676465Y-37760505D01*
X39056177Y-37555624D01*
X39056179Y-37555623D01*
X39058638Y-37554296D01*
X39139122Y-37501126D01*
X39424396Y-37312664D01*
X39424398Y-37312663D01*
X39426739Y-37311116D01*
X39428930Y-37309370D01*
X39428937Y-37309365D01*
X39727038Y-37071819D01*
X39771766Y-37036177D01*
X40090987Y-36731656D01*
X40092824Y-36729562D01*
X40092832Y-36729553D01*
X40354136Y-36431592D01*
X40381874Y-36399963D01*
X40642124Y-36043725D01*
X40643570Y-36041324D01*
X40868224Y-35668174D01*
X40868229Y-35668165D01*
X40869675Y-35665763D01*
X41062727Y-35269069D01*
X41192057Y-34929502D01*
X41218757Y-34859398D01*
X41218758Y-34859394D01*
X41219752Y-34856785D01*
X41339504Y-34432174D01*
X41340023Y-34429415D01*
X41420521Y-34001345D01*
X41420523Y-34001333D01*
X41421037Y-33998598D01*
X41441924Y-33783644D01*
X41463490Y-33561709D01*
X41463491Y-33561697D01*
X41463705Y-33559492D01*
X41465238Y-33500948D01*
X41470442Y-33302243D01*
X41470442Y-33302230D01*
X41470500Y-33300010D01*
X41450872Y-32859272D01*
X41392142Y-32422024D01*
X41387558Y-32401762D01*
X41295393Y-31994455D01*
X41294776Y-31991727D01*
X41159544Y-31571790D01*
X41141014Y-31528028D01*
X40988608Y-31168110D01*
X40988608Y-31168109D01*
X40987518Y-31165536D01*
X40907437Y-31015241D01*
X40781381Y-30778664D01*
X40781381Y-30778663D01*
X40780059Y-30776183D01*
X40538810Y-30406813D01*
X40265681Y-30060351D01*
X39962836Y-29739540D01*
X39960745Y-29737687D01*
X39960737Y-29737679D01*
X39634770Y-29448781D01*
X39634768Y-29448779D01*
X39632670Y-29446920D01*
X39575122Y-29404414D01*
X39506450Y-29353692D01*
X39277800Y-29184809D01*
X39043727Y-29042210D01*
X38903424Y-28956736D01*
X38903417Y-28956732D01*
X38901035Y-28955281D01*
X38873066Y-28941488D01*
X38507869Y-28761394D01*
X38505357Y-28760155D01*
X38093900Y-28600974D01*
X38091196Y-28600196D01*
X37672603Y-28479771D01*
X37672597Y-28479770D01*
X37669922Y-28479000D01*
X37667185Y-28478471D01*
X37667179Y-28478469D01*
X37517927Y-28449593D01*
X37236780Y-28395198D01*
X36797902Y-28350231D01*
X36795111Y-28350194D01*
X36795103Y-28350194D01*
X36522480Y-28346625D01*
X36356765Y-28344456D01*
X36353966Y-28344669D01*
X36353964Y-28344669D01*
X35945666Y-28375728D01*
X35916862Y-28377919D01*
X35481674Y-28450354D01*
X35415675Y-28467484D01*
X35057366Y-28560482D01*
X35057355Y-28560485D01*
X35054648Y-28561188D01*
X35052012Y-28562129D01*
X35052003Y-28562132D01*
X34641814Y-28708598D01*
X34639165Y-28709544D01*
X34238516Y-28894246D01*
X34236093Y-28895636D01*
X34236090Y-28895638D01*
X34099134Y-28974232D01*
X33855871Y-29113832D01*
X33853579Y-29115434D01*
X33853571Y-29115439D01*
X33552086Y-29326150D01*
X33494261Y-29366564D01*
X33492120Y-29368364D01*
X33492117Y-29368366D01*
X33199863Y-29614032D01*
X33156549Y-29650441D01*
X33154575Y-29652425D01*
X33154571Y-29652429D01*
X33087716Y-29719635D01*
X32845409Y-29963214D01*
X32563305Y-30302408D01*
X32312470Y-30665336D01*
X32094890Y-31049125D01*
X31912288Y-31450737D01*
X31766110Y-31866990D01*
X31657513Y-32294591D01*
X31657070Y-32297341D01*
X31657068Y-32297351D01*
X31587804Y-32727381D01*
X31587358Y-32730152D01*
X31587160Y-32732953D01*
X31587159Y-32732959D01*
X31571759Y-32950466D01*
X31556199Y-33170225D01*
X28759243Y-33170225D01*
X28783514Y-33129107D01*
X28784963Y-33126712D01*
X28814432Y-33079229D01*
X28892896Y-32952803D01*
X28894344Y-32950527D01*
X29252056Y-32401756D01*
X29253589Y-32399460D01*
X29369169Y-32230477D01*
X29370637Y-32228383D01*
X29752413Y-31695988D01*
X29753999Y-31693826D01*
X29876915Y-31530219D01*
X29878603Y-31528023D01*
X29937320Y-31453381D01*
X30186268Y-31136910D01*
X30283591Y-31013191D01*
X30285346Y-31011010D01*
X30294872Y-30999439D01*
X30415450Y-30852973D01*
X30417090Y-30851026D01*
X30844590Y-30354642D01*
X30846422Y-30352562D01*
X30983364Y-30200520D01*
X30985260Y-30198461D01*
X31219502Y-29949733D01*
X31434326Y-29721624D01*
X31436240Y-29719637D01*
X31579793Y-29573838D01*
X31581778Y-29571865D01*
X31797061Y-29362716D01*
X32051616Y-29115414D01*
X32053568Y-29113560D01*
X32203508Y-28974232D01*
X32205534Y-28972391D01*
X32667197Y-28562132D01*
X32695098Y-28537338D01*
X32697211Y-28535502D01*
X32853174Y-28402988D01*
X32855327Y-28401199D01*
X33363710Y-27988342D01*
X33363765Y-27988298D01*
X33365903Y-27986601D01*
X33456224Y-27916523D01*
X33527579Y-27861161D01*
X33529809Y-27859470D01*
X33764748Y-27685408D01*
X34056141Y-27469520D01*
X34058291Y-27467964D01*
X34225446Y-27349782D01*
X34227608Y-27348289D01*
X34770839Y-26982041D01*
X34773101Y-26980552D01*
X34945291Y-26869945D01*
X34947663Y-26868459D01*
X35506408Y-26526838D01*
X35508813Y-26525404D01*
X35685720Y-26422570D01*
X35688155Y-26421190D01*
X36261593Y-26104686D01*
X36264059Y-26103361D01*
X36454080Y-26003923D01*
X36523710Y-25990061D01*
X36570920Y-26003923D01*
G37*
G04 #@! TD.AperFunction*
M02*
