G04 #@! TF.GenerationSoftware,KiCad,Pcbnew,(5.99.0-10027-g0561ce903e)*
G04 #@! TF.CreationDate,2021-11-08T22:58:05-08:00*
G04 #@! TF.ProjectId,scale_cca,7363616c-655f-4636-9361-2e6b69636164,v1r0*
G04 #@! TF.SameCoordinates,Original*
G04 #@! TF.FileFunction,Legend,Bot*
G04 #@! TF.FilePolarity,Positive*
%FSLAX46Y46*%
G04 Gerber Fmt 4.6, Leading zero omitted, Abs format (unit mm)*
G04 Created by KiCad (PCBNEW (5.99.0-10027-g0561ce903e)) date 2021-11-08 22:58:05*
%MOMM*%
%LPD*%
G01*
G04 APERTURE LIST*
%ADD10C,0.150000*%
G04 APERTURE END LIST*
D10*
X28580880Y-14654785D02*
X28580880Y-14178595D01*
X27580880Y-14178595D01*
X28580880Y-15416690D02*
X28057071Y-15416690D01*
X27961833Y-15369071D01*
X27914214Y-15273833D01*
X27914214Y-15083357D01*
X27961833Y-14988119D01*
X28533261Y-15416690D02*
X28580880Y-15321452D01*
X28580880Y-15083357D01*
X28533261Y-14988119D01*
X28438023Y-14940500D01*
X28342785Y-14940500D01*
X28247547Y-14988119D01*
X28199928Y-15083357D01*
X28199928Y-15321452D01*
X28152309Y-15416690D01*
X28580880Y-15892880D02*
X27914214Y-15892880D01*
X28104690Y-15892880D02*
X28009452Y-15940500D01*
X27961833Y-15988119D01*
X27914214Y-16083357D01*
X27914214Y-16178595D01*
X27914214Y-16940500D02*
X28723738Y-16940500D01*
X28818976Y-16892880D01*
X28866595Y-16845261D01*
X28914214Y-16750023D01*
X28914214Y-16607166D01*
X28866595Y-16511928D01*
X28533261Y-16940500D02*
X28580880Y-16845261D01*
X28580880Y-16654785D01*
X28533261Y-16559547D01*
X28485642Y-16511928D01*
X28390404Y-16464309D01*
X28104690Y-16464309D01*
X28009452Y-16511928D01*
X27961833Y-16559547D01*
X27914214Y-16654785D01*
X27914214Y-16845261D01*
X27961833Y-16940500D01*
X28533261Y-17797642D02*
X28580880Y-17702404D01*
X28580880Y-17511928D01*
X28533261Y-17416690D01*
X28438023Y-17369071D01*
X28057071Y-17369071D01*
X27961833Y-17416690D01*
X27914214Y-17511928D01*
X27914214Y-17702404D01*
X27961833Y-17797642D01*
X28057071Y-17845261D01*
X28152309Y-17845261D01*
X28247547Y-17369071D01*
X28580880Y-19511928D02*
X28580880Y-19035738D01*
X27580880Y-19035738D01*
X28057071Y-19845261D02*
X28057071Y-20178595D01*
X28580880Y-20321452D02*
X28580880Y-19845261D01*
X27580880Y-19845261D01*
X27580880Y-20321452D01*
X28580880Y-20750023D02*
X27580880Y-20750023D01*
X27580880Y-20988119D01*
X27628500Y-21130976D01*
X27723738Y-21226214D01*
X27818976Y-21273833D01*
X28009452Y-21321452D01*
X28152309Y-21321452D01*
X28342785Y-21273833D01*
X28438023Y-21226214D01*
X28533261Y-21130976D01*
X28580880Y-20988119D01*
X28580880Y-20750023D01*
X30143261Y-14130976D02*
X30190880Y-14273833D01*
X30190880Y-14511928D01*
X30143261Y-14607166D01*
X30095642Y-14654785D01*
X30000404Y-14702404D01*
X29905166Y-14702404D01*
X29809928Y-14654785D01*
X29762309Y-14607166D01*
X29714690Y-14511928D01*
X29667071Y-14321452D01*
X29619452Y-14226214D01*
X29571833Y-14178595D01*
X29476595Y-14130976D01*
X29381357Y-14130976D01*
X29286119Y-14178595D01*
X29238500Y-14226214D01*
X29190880Y-14321452D01*
X29190880Y-14559547D01*
X29238500Y-14702404D01*
X30143261Y-15559547D02*
X30190880Y-15464309D01*
X30190880Y-15273833D01*
X30143261Y-15178595D01*
X30095642Y-15130976D01*
X30000404Y-15083357D01*
X29714690Y-15083357D01*
X29619452Y-15130976D01*
X29571833Y-15178595D01*
X29524214Y-15273833D01*
X29524214Y-15464309D01*
X29571833Y-15559547D01*
X30190880Y-16416690D02*
X29667071Y-16416690D01*
X29571833Y-16369071D01*
X29524214Y-16273833D01*
X29524214Y-16083357D01*
X29571833Y-15988119D01*
X30143261Y-16416690D02*
X30190880Y-16321452D01*
X30190880Y-16083357D01*
X30143261Y-15988119D01*
X30048023Y-15940500D01*
X29952785Y-15940500D01*
X29857547Y-15988119D01*
X29809928Y-16083357D01*
X29809928Y-16321452D01*
X29762309Y-16416690D01*
X30190880Y-17035738D02*
X30143261Y-16940500D01*
X30048023Y-16892880D01*
X29190880Y-16892880D01*
X30143261Y-17797642D02*
X30190880Y-17702404D01*
X30190880Y-17511928D01*
X30143261Y-17416690D01*
X30048023Y-17369071D01*
X29667071Y-17369071D01*
X29571833Y-17416690D01*
X29524214Y-17511928D01*
X29524214Y-17702404D01*
X29571833Y-17797642D01*
X29667071Y-17845261D01*
X29762309Y-17845261D01*
X29857547Y-17369071D01*
X30190880Y-18273833D02*
X29524214Y-18273833D01*
X29619452Y-18273833D02*
X29571833Y-18321452D01*
X29524214Y-18416690D01*
X29524214Y-18559547D01*
X29571833Y-18654785D01*
X29667071Y-18702404D01*
X30190880Y-18702404D01*
X29667071Y-18702404D02*
X29571833Y-18750023D01*
X29524214Y-18845261D01*
X29524214Y-18988119D01*
X29571833Y-19083357D01*
X29667071Y-19130976D01*
X30190880Y-19130976D01*
X30190880Y-20035738D02*
X29667071Y-20035738D01*
X29571833Y-19988119D01*
X29524214Y-19892880D01*
X29524214Y-19702404D01*
X29571833Y-19607166D01*
X30143261Y-20035738D02*
X30190880Y-19940500D01*
X30190880Y-19702404D01*
X30143261Y-19607166D01*
X30048023Y-19559547D01*
X29952785Y-19559547D01*
X29857547Y-19607166D01*
X29809928Y-19702404D01*
X29809928Y-19940500D01*
X29762309Y-20035738D01*
X30190880Y-20511928D02*
X29524214Y-20511928D01*
X29190880Y-20511928D02*
X29238500Y-20464309D01*
X29286119Y-20511928D01*
X29238500Y-20559547D01*
X29190880Y-20511928D01*
X29286119Y-20511928D01*
X30190880Y-21130976D02*
X30143261Y-21035738D01*
X30048023Y-20988119D01*
X29190880Y-20988119D01*
X30190880Y-21654785D02*
X30143261Y-21559547D01*
X30048023Y-21511928D01*
X29190880Y-21511928D01*
X30143261Y-22416690D02*
X30190880Y-22321452D01*
X30190880Y-22130976D01*
X30143261Y-22035738D01*
X30048023Y-21988119D01*
X29667071Y-21988119D01*
X29571833Y-22035738D01*
X29524214Y-22130976D01*
X29524214Y-22321452D01*
X29571833Y-22416690D01*
X29667071Y-22464309D01*
X29762309Y-22464309D01*
X29857547Y-21988119D01*
X31134214Y-14083357D02*
X31800880Y-14321452D01*
X31134214Y-14559547D01*
X31800880Y-15464309D02*
X31800880Y-14892880D01*
X31800880Y-15178595D02*
X30800880Y-15178595D01*
X30943738Y-15083357D01*
X31038976Y-14988119D01*
X31086595Y-14892880D01*
X31800880Y-15892880D02*
X31134214Y-15892880D01*
X31324690Y-15892880D02*
X31229452Y-15940500D01*
X31181833Y-15988119D01*
X31134214Y-16083357D01*
X31134214Y-16178595D01*
X30896119Y-16464309D02*
X30848500Y-16511928D01*
X30800880Y-16607166D01*
X30800880Y-16845261D01*
X30848500Y-16940500D01*
X30896119Y-16988119D01*
X30991357Y-17035738D01*
X31086595Y-17035738D01*
X31229452Y-16988119D01*
X31800880Y-16416690D01*
X31800880Y-17035738D01*
X30848500Y-18750023D02*
X30800880Y-18654785D01*
X30800880Y-18511928D01*
X30848500Y-18369071D01*
X30943738Y-18273833D01*
X31038976Y-18226214D01*
X31229452Y-18178595D01*
X31372309Y-18178595D01*
X31562785Y-18226214D01*
X31658023Y-18273833D01*
X31753261Y-18369071D01*
X31800880Y-18511928D01*
X31800880Y-18607166D01*
X31753261Y-18750023D01*
X31705642Y-18797642D01*
X31372309Y-18797642D01*
X31372309Y-18607166D01*
X31800880Y-19226214D02*
X31134214Y-19226214D01*
X30800880Y-19226214D02*
X30848500Y-19178595D01*
X30896119Y-19226214D01*
X30848500Y-19273833D01*
X30800880Y-19226214D01*
X30896119Y-19226214D01*
X31134214Y-19559547D02*
X31134214Y-19940500D01*
X30800880Y-19702404D02*
X31658023Y-19702404D01*
X31753261Y-19750023D01*
X31800880Y-19845261D01*
X31800880Y-19940500D01*
X31800880Y-20273833D02*
X30800880Y-20273833D01*
X31800880Y-20702404D02*
X31277071Y-20702404D01*
X31181833Y-20654785D01*
X31134214Y-20559547D01*
X31134214Y-20416690D01*
X31181833Y-20321452D01*
X31229452Y-20273833D01*
X31134214Y-21607166D02*
X31800880Y-21607166D01*
X31134214Y-21178595D02*
X31658023Y-21178595D01*
X31753261Y-21226214D01*
X31800880Y-21321452D01*
X31800880Y-21464309D01*
X31753261Y-21559547D01*
X31705642Y-21607166D01*
X31800880Y-22083357D02*
X30800880Y-22083357D01*
X31181833Y-22083357D02*
X31134214Y-22178595D01*
X31134214Y-22369071D01*
X31181833Y-22464309D01*
X31229452Y-22511928D01*
X31324690Y-22559547D01*
X31610404Y-22559547D01*
X31705642Y-22511928D01*
X31753261Y-22464309D01*
X31800880Y-22369071D01*
X31800880Y-22178595D01*
X31753261Y-22083357D01*
X33363261Y-14130976D02*
X33410880Y-14273833D01*
X33410880Y-14511928D01*
X33363261Y-14607166D01*
X33315642Y-14654785D01*
X33220404Y-14702404D01*
X33125166Y-14702404D01*
X33029928Y-14654785D01*
X32982309Y-14607166D01*
X32934690Y-14511928D01*
X32887071Y-14321452D01*
X32839452Y-14226214D01*
X32791833Y-14178595D01*
X32696595Y-14130976D01*
X32601357Y-14130976D01*
X32506119Y-14178595D01*
X32458500Y-14226214D01*
X32410880Y-14321452D01*
X32410880Y-14559547D01*
X32458500Y-14702404D01*
X33363261Y-15559547D02*
X33410880Y-15464309D01*
X33410880Y-15273833D01*
X33363261Y-15178595D01*
X33315642Y-15130976D01*
X33220404Y-15083357D01*
X32934690Y-15083357D01*
X32839452Y-15130976D01*
X32791833Y-15178595D01*
X32744214Y-15273833D01*
X32744214Y-15464309D01*
X32791833Y-15559547D01*
X33410880Y-16130976D02*
X33363261Y-16035738D01*
X33315642Y-15988119D01*
X33220404Y-15940499D01*
X32934690Y-15940499D01*
X32839452Y-15988119D01*
X32791833Y-16035738D01*
X32744214Y-16130976D01*
X32744214Y-16273833D01*
X32791833Y-16369071D01*
X32839452Y-16416690D01*
X32934690Y-16464309D01*
X33220404Y-16464309D01*
X33315642Y-16416690D01*
X33363261Y-16369071D01*
X33410880Y-16273833D01*
X33410880Y-16130976D01*
X32744214Y-16750023D02*
X32744214Y-17130976D01*
X32410880Y-16892880D02*
X33268023Y-16892880D01*
X33363261Y-16940499D01*
X33410880Y-17035738D01*
X33410880Y-17130976D01*
X32744214Y-17321452D02*
X32744214Y-17702404D01*
X32410880Y-17464309D02*
X33268023Y-17464309D01*
X33363261Y-17511928D01*
X33410880Y-17607166D01*
X33410880Y-17702404D01*
X33125166Y-18750023D02*
X33125166Y-19226214D01*
X33410880Y-18654785D02*
X32410880Y-18988119D01*
X33410880Y-19321452D01*
X33410880Y-19797642D02*
X33363261Y-19702404D01*
X33268023Y-19654785D01*
X32410880Y-19654785D01*
X33410880Y-20178595D02*
X32744214Y-20178595D01*
X32839452Y-20178595D02*
X32791833Y-20226214D01*
X32744214Y-20321452D01*
X32744214Y-20464309D01*
X32791833Y-20559547D01*
X32887071Y-20607166D01*
X33410880Y-20607166D01*
X32887071Y-20607166D02*
X32791833Y-20654785D01*
X32744214Y-20750023D01*
X32744214Y-20892880D01*
X32791833Y-20988119D01*
X32887071Y-21035738D01*
X33410880Y-21035738D01*
X33410880Y-21654785D02*
X33363261Y-21559547D01*
X33315642Y-21511928D01*
X33220404Y-21464309D01*
X32934690Y-21464309D01*
X32839452Y-21511928D01*
X32791833Y-21559547D01*
X32744214Y-21654785D01*
X32744214Y-21797642D01*
X32791833Y-21892880D01*
X32839452Y-21940499D01*
X32934690Y-21988119D01*
X33220404Y-21988119D01*
X33315642Y-21940499D01*
X33363261Y-21892880D01*
X33410880Y-21797642D01*
X33410880Y-21654785D01*
X32744214Y-22416690D02*
X33410880Y-22416690D01*
X32839452Y-22416690D02*
X32791833Y-22464309D01*
X32744214Y-22559547D01*
X32744214Y-22702404D01*
X32791833Y-22797642D01*
X32887071Y-22845261D01*
X33410880Y-22845261D01*
X33410880Y-23750023D02*
X32410880Y-23750023D01*
X33363261Y-23750023D02*
X33410880Y-23654785D01*
X33410880Y-23464309D01*
X33363261Y-23369071D01*
X33315642Y-23321452D01*
X33220404Y-23273833D01*
X32934690Y-23273833D01*
X32839452Y-23321452D01*
X32791833Y-23369071D01*
X32744214Y-23464309D01*
X32744214Y-23654785D01*
X32791833Y-23750023D01*
X39441500Y-11811095D02*
X39393880Y-11715857D01*
X39393880Y-11573000D01*
X39441500Y-11430142D01*
X39536738Y-11334904D01*
X39631976Y-11287285D01*
X39822452Y-11239666D01*
X39965309Y-11239666D01*
X40155785Y-11287285D01*
X40251023Y-11334904D01*
X40346261Y-11430142D01*
X40393880Y-11573000D01*
X40393880Y-11668238D01*
X40346261Y-11811095D01*
X40298642Y-11858714D01*
X39965309Y-11858714D01*
X39965309Y-11668238D01*
X40393880Y-12287285D02*
X39393880Y-12287285D01*
X40393880Y-12858714D01*
X39393880Y-12858714D01*
X40393880Y-13334904D02*
X39393880Y-13334904D01*
X39393880Y-13573000D01*
X39441500Y-13715857D01*
X39536738Y-13811095D01*
X39631976Y-13858714D01*
X39822452Y-13906333D01*
X39965309Y-13906333D01*
X40155785Y-13858714D01*
X40251023Y-13811095D01*
X40346261Y-13715857D01*
X40393880Y-13573000D01*
X40393880Y-13334904D01*
X42933880Y-11327000D02*
X41933880Y-11327000D01*
X41933880Y-11565095D01*
X41981500Y-11707952D01*
X42076738Y-11803190D01*
X42171976Y-11850809D01*
X42362452Y-11898428D01*
X42505309Y-11898428D01*
X42695785Y-11850809D01*
X42791023Y-11803190D01*
X42886261Y-11707952D01*
X42933880Y-11565095D01*
X42933880Y-11327000D01*
X42648166Y-12279380D02*
X42648166Y-12755571D01*
X42933880Y-12184142D02*
X41933880Y-12517476D01*
X42933880Y-12850809D01*
X41933880Y-13041285D02*
X41933880Y-13612714D01*
X42933880Y-13327000D02*
X41933880Y-13327000D01*
X42648166Y-13898428D02*
X42648166Y-14374619D01*
X42933880Y-13803190D02*
X41933880Y-14136523D01*
X42933880Y-14469857D01*
X44473880Y-11239666D02*
X45473880Y-11573000D01*
X44473880Y-11906333D01*
X45378642Y-12811095D02*
X45426261Y-12763476D01*
X45473880Y-12620619D01*
X45473880Y-12525380D01*
X45426261Y-12382523D01*
X45331023Y-12287285D01*
X45235785Y-12239666D01*
X45045309Y-12192047D01*
X44902452Y-12192047D01*
X44711976Y-12239666D01*
X44616738Y-12287285D01*
X44521500Y-12382523D01*
X44473880Y-12525380D01*
X44473880Y-12620619D01*
X44521500Y-12763476D01*
X44569119Y-12811095D01*
X45378642Y-13811095D02*
X45426261Y-13763476D01*
X45473880Y-13620619D01*
X45473880Y-13525380D01*
X45426261Y-13382523D01*
X45331023Y-13287285D01*
X45235785Y-13239666D01*
X45045309Y-13192047D01*
X44902452Y-13192047D01*
X44711976Y-13239666D01*
X44616738Y-13287285D01*
X44521500Y-13382523D01*
X44473880Y-13525380D01*
X44473880Y-13620619D01*
X44521500Y-13763476D01*
X44569119Y-13811095D01*
M02*
