G04 #@! TF.GenerationSoftware,KiCad,Pcbnew,(5.99.0-10027-g0561ce903e)*
G04 #@! TF.CreationDate,2021-10-10T12:50:56-07:00*
G04 #@! TF.ProjectId,scale_cca,7363616c-655f-4636-9361-2e6b69636164,v1r0*
G04 #@! TF.SameCoordinates,Original*
G04 #@! TF.FileFunction,Legend,Top*
G04 #@! TF.FilePolarity,Positive*
%FSLAX46Y46*%
G04 Gerber Fmt 4.6, Leading zero omitted, Abs format (unit mm)*
G04 Created by KiCad (PCBNEW (5.99.0-10027-g0561ce903e)) date 2021-10-10 12:50:56*
%MOMM*%
%LPD*%
G01*
G04 APERTURE LIST*
%ADD10C,0.150000*%
%ADD11C,0.120000*%
G04 APERTURE END LIST*
D10*
X40518880Y-22683214D02*
X40518880Y-23159404D01*
X39518880Y-23159404D01*
X40518880Y-21921309D02*
X39995071Y-21921309D01*
X39899833Y-21968928D01*
X39852214Y-22064166D01*
X39852214Y-22254642D01*
X39899833Y-22349880D01*
X40471261Y-21921309D02*
X40518880Y-22016547D01*
X40518880Y-22254642D01*
X40471261Y-22349880D01*
X40376023Y-22397500D01*
X40280785Y-22397500D01*
X40185547Y-22349880D01*
X40137928Y-22254642D01*
X40137928Y-22016547D01*
X40090309Y-21921309D01*
X40518880Y-21445119D02*
X39852214Y-21445119D01*
X40042690Y-21445119D02*
X39947452Y-21397500D01*
X39899833Y-21349880D01*
X39852214Y-21254642D01*
X39852214Y-21159404D01*
X39852214Y-20397500D02*
X40661738Y-20397500D01*
X40756976Y-20445119D01*
X40804595Y-20492738D01*
X40852214Y-20587976D01*
X40852214Y-20730833D01*
X40804595Y-20826071D01*
X40471261Y-20397500D02*
X40518880Y-20492738D01*
X40518880Y-20683214D01*
X40471261Y-20778452D01*
X40423642Y-20826071D01*
X40328404Y-20873690D01*
X40042690Y-20873690D01*
X39947452Y-20826071D01*
X39899833Y-20778452D01*
X39852214Y-20683214D01*
X39852214Y-20492738D01*
X39899833Y-20397500D01*
X40471261Y-19540357D02*
X40518880Y-19635595D01*
X40518880Y-19826071D01*
X40471261Y-19921309D01*
X40376023Y-19968928D01*
X39995071Y-19968928D01*
X39899833Y-19921309D01*
X39852214Y-19826071D01*
X39852214Y-19635595D01*
X39899833Y-19540357D01*
X39995071Y-19492738D01*
X40090309Y-19492738D01*
X40185547Y-19968928D01*
X40518880Y-17826071D02*
X40518880Y-18302261D01*
X39518880Y-18302261D01*
X39995071Y-17492738D02*
X39995071Y-17159404D01*
X40518880Y-17016547D02*
X40518880Y-17492738D01*
X39518880Y-17492738D01*
X39518880Y-17016547D01*
X40518880Y-16587976D02*
X39518880Y-16587976D01*
X39518880Y-16349880D01*
X39566500Y-16207023D01*
X39661738Y-16111785D01*
X39756976Y-16064166D01*
X39947452Y-16016547D01*
X40090309Y-16016547D01*
X40280785Y-16064166D01*
X40376023Y-16111785D01*
X40471261Y-16207023D01*
X40518880Y-16349880D01*
X40518880Y-16587976D01*
X42081261Y-23207023D02*
X42128880Y-23064166D01*
X42128880Y-22826071D01*
X42081261Y-22730833D01*
X42033642Y-22683214D01*
X41938404Y-22635595D01*
X41843166Y-22635595D01*
X41747928Y-22683214D01*
X41700309Y-22730833D01*
X41652690Y-22826071D01*
X41605071Y-23016547D01*
X41557452Y-23111785D01*
X41509833Y-23159404D01*
X41414595Y-23207023D01*
X41319357Y-23207023D01*
X41224119Y-23159404D01*
X41176500Y-23111785D01*
X41128880Y-23016547D01*
X41128880Y-22778452D01*
X41176500Y-22635595D01*
X42081261Y-21778452D02*
X42128880Y-21873690D01*
X42128880Y-22064166D01*
X42081261Y-22159404D01*
X42033642Y-22207023D01*
X41938404Y-22254642D01*
X41652690Y-22254642D01*
X41557452Y-22207023D01*
X41509833Y-22159404D01*
X41462214Y-22064166D01*
X41462214Y-21873690D01*
X41509833Y-21778452D01*
X42128880Y-20921309D02*
X41605071Y-20921309D01*
X41509833Y-20968928D01*
X41462214Y-21064166D01*
X41462214Y-21254642D01*
X41509833Y-21349880D01*
X42081261Y-20921309D02*
X42128880Y-21016547D01*
X42128880Y-21254642D01*
X42081261Y-21349880D01*
X41986023Y-21397500D01*
X41890785Y-21397500D01*
X41795547Y-21349880D01*
X41747928Y-21254642D01*
X41747928Y-21016547D01*
X41700309Y-20921309D01*
X42128880Y-20302261D02*
X42081261Y-20397500D01*
X41986023Y-20445119D01*
X41128880Y-20445119D01*
X42081261Y-19540357D02*
X42128880Y-19635595D01*
X42128880Y-19826071D01*
X42081261Y-19921309D01*
X41986023Y-19968928D01*
X41605071Y-19968928D01*
X41509833Y-19921309D01*
X41462214Y-19826071D01*
X41462214Y-19635595D01*
X41509833Y-19540357D01*
X41605071Y-19492738D01*
X41700309Y-19492738D01*
X41795547Y-19968928D01*
X42128880Y-19064166D02*
X41462214Y-19064166D01*
X41557452Y-19064166D02*
X41509833Y-19016547D01*
X41462214Y-18921309D01*
X41462214Y-18778452D01*
X41509833Y-18683214D01*
X41605071Y-18635595D01*
X42128880Y-18635595D01*
X41605071Y-18635595D02*
X41509833Y-18587976D01*
X41462214Y-18492738D01*
X41462214Y-18349880D01*
X41509833Y-18254642D01*
X41605071Y-18207023D01*
X42128880Y-18207023D01*
X42128880Y-17302261D02*
X41605071Y-17302261D01*
X41509833Y-17349880D01*
X41462214Y-17445119D01*
X41462214Y-17635595D01*
X41509833Y-17730833D01*
X42081261Y-17302261D02*
X42128880Y-17397500D01*
X42128880Y-17635595D01*
X42081261Y-17730833D01*
X41986023Y-17778452D01*
X41890785Y-17778452D01*
X41795547Y-17730833D01*
X41747928Y-17635595D01*
X41747928Y-17397500D01*
X41700309Y-17302261D01*
X42128880Y-16826071D02*
X41462214Y-16826071D01*
X41128880Y-16826071D02*
X41176500Y-16873690D01*
X41224119Y-16826071D01*
X41176500Y-16778452D01*
X41128880Y-16826071D01*
X41224119Y-16826071D01*
X42128880Y-16207023D02*
X42081261Y-16302261D01*
X41986023Y-16349880D01*
X41128880Y-16349880D01*
X42128880Y-15683214D02*
X42081261Y-15778452D01*
X41986023Y-15826071D01*
X41128880Y-15826071D01*
X42081261Y-14921309D02*
X42128880Y-15016547D01*
X42128880Y-15207023D01*
X42081261Y-15302261D01*
X41986023Y-15349880D01*
X41605071Y-15349880D01*
X41509833Y-15302261D01*
X41462214Y-15207023D01*
X41462214Y-15016547D01*
X41509833Y-14921309D01*
X41605071Y-14873690D01*
X41700309Y-14873690D01*
X41795547Y-15349880D01*
X43072214Y-23254642D02*
X43738880Y-23016547D01*
X43072214Y-22778452D01*
X43738880Y-21873690D02*
X43738880Y-22445119D01*
X43738880Y-22159404D02*
X42738880Y-22159404D01*
X42881738Y-22254642D01*
X42976976Y-22349880D01*
X43024595Y-22445119D01*
X43738880Y-21445119D02*
X43072214Y-21445119D01*
X43262690Y-21445119D02*
X43167452Y-21397500D01*
X43119833Y-21349880D01*
X43072214Y-21254642D01*
X43072214Y-21159404D01*
X42834119Y-20873690D02*
X42786500Y-20826071D01*
X42738880Y-20730833D01*
X42738880Y-20492738D01*
X42786500Y-20397500D01*
X42834119Y-20349880D01*
X42929357Y-20302261D01*
X43024595Y-20302261D01*
X43167452Y-20349880D01*
X43738880Y-20921309D01*
X43738880Y-20302261D01*
X42786500Y-18587976D02*
X42738880Y-18683214D01*
X42738880Y-18826071D01*
X42786500Y-18968928D01*
X42881738Y-19064166D01*
X42976976Y-19111785D01*
X43167452Y-19159404D01*
X43310309Y-19159404D01*
X43500785Y-19111785D01*
X43596023Y-19064166D01*
X43691261Y-18968928D01*
X43738880Y-18826071D01*
X43738880Y-18730833D01*
X43691261Y-18587976D01*
X43643642Y-18540357D01*
X43310309Y-18540357D01*
X43310309Y-18730833D01*
X43738880Y-18111785D02*
X43072214Y-18111785D01*
X42738880Y-18111785D02*
X42786500Y-18159404D01*
X42834119Y-18111785D01*
X42786500Y-18064166D01*
X42738880Y-18111785D01*
X42834119Y-18111785D01*
X43072214Y-17778452D02*
X43072214Y-17397500D01*
X42738880Y-17635595D02*
X43596023Y-17635595D01*
X43691261Y-17587976D01*
X43738880Y-17492738D01*
X43738880Y-17397500D01*
X43738880Y-17064166D02*
X42738880Y-17064166D01*
X43738880Y-16635595D02*
X43215071Y-16635595D01*
X43119833Y-16683214D01*
X43072214Y-16778452D01*
X43072214Y-16921309D01*
X43119833Y-17016547D01*
X43167452Y-17064166D01*
X43072214Y-15730833D02*
X43738880Y-15730833D01*
X43072214Y-16159404D02*
X43596023Y-16159404D01*
X43691261Y-16111785D01*
X43738880Y-16016547D01*
X43738880Y-15873690D01*
X43691261Y-15778452D01*
X43643642Y-15730833D01*
X43738880Y-15254642D02*
X42738880Y-15254642D01*
X43119833Y-15254642D02*
X43072214Y-15159404D01*
X43072214Y-14968928D01*
X43119833Y-14873690D01*
X43167452Y-14826071D01*
X43262690Y-14778452D01*
X43548404Y-14778452D01*
X43643642Y-14826071D01*
X43691261Y-14873690D01*
X43738880Y-14968928D01*
X43738880Y-15159404D01*
X43691261Y-15254642D01*
X45301261Y-23207023D02*
X45348880Y-23064166D01*
X45348880Y-22826071D01*
X45301261Y-22730833D01*
X45253642Y-22683214D01*
X45158404Y-22635595D01*
X45063166Y-22635595D01*
X44967928Y-22683214D01*
X44920309Y-22730833D01*
X44872690Y-22826071D01*
X44825071Y-23016547D01*
X44777452Y-23111785D01*
X44729833Y-23159404D01*
X44634595Y-23207023D01*
X44539357Y-23207023D01*
X44444119Y-23159404D01*
X44396500Y-23111785D01*
X44348880Y-23016547D01*
X44348880Y-22778452D01*
X44396500Y-22635595D01*
X45301261Y-21778452D02*
X45348880Y-21873690D01*
X45348880Y-22064166D01*
X45301261Y-22159404D01*
X45253642Y-22207023D01*
X45158404Y-22254642D01*
X44872690Y-22254642D01*
X44777452Y-22207023D01*
X44729833Y-22159404D01*
X44682214Y-22064166D01*
X44682214Y-21873690D01*
X44729833Y-21778452D01*
X45348880Y-21207023D02*
X45301261Y-21302261D01*
X45253642Y-21349880D01*
X45158404Y-21397500D01*
X44872690Y-21397500D01*
X44777452Y-21349880D01*
X44729833Y-21302261D01*
X44682214Y-21207023D01*
X44682214Y-21064166D01*
X44729833Y-20968928D01*
X44777452Y-20921309D01*
X44872690Y-20873690D01*
X45158404Y-20873690D01*
X45253642Y-20921309D01*
X45301261Y-20968928D01*
X45348880Y-21064166D01*
X45348880Y-21207023D01*
X44682214Y-20587976D02*
X44682214Y-20207023D01*
X44348880Y-20445119D02*
X45206023Y-20445119D01*
X45301261Y-20397500D01*
X45348880Y-20302261D01*
X45348880Y-20207023D01*
X44682214Y-20016547D02*
X44682214Y-19635595D01*
X44348880Y-19873690D02*
X45206023Y-19873690D01*
X45301261Y-19826071D01*
X45348880Y-19730833D01*
X45348880Y-19635595D01*
X45063166Y-19349880D02*
X45063166Y-18873690D01*
X45348880Y-19445119D02*
X44348880Y-19111785D01*
X45348880Y-18778452D01*
X45348880Y-18302261D02*
X45301261Y-18397500D01*
X45206023Y-18445119D01*
X44348880Y-18445119D01*
X45348880Y-17921309D02*
X44682214Y-17921309D01*
X44777452Y-17921309D02*
X44729833Y-17873690D01*
X44682214Y-17778452D01*
X44682214Y-17635595D01*
X44729833Y-17540357D01*
X44825071Y-17492738D01*
X45348880Y-17492738D01*
X44825071Y-17492738D02*
X44729833Y-17445119D01*
X44682214Y-17349880D01*
X44682214Y-17207023D01*
X44729833Y-17111785D01*
X44825071Y-17064166D01*
X45348880Y-17064166D01*
X45348880Y-16445119D02*
X45301261Y-16540357D01*
X45253642Y-16587976D01*
X45158404Y-16635595D01*
X44872690Y-16635595D01*
X44777452Y-16587976D01*
X44729833Y-16540357D01*
X44682214Y-16445119D01*
X44682214Y-16302261D01*
X44729833Y-16207023D01*
X44777452Y-16159404D01*
X44872690Y-16111785D01*
X45158404Y-16111785D01*
X45253642Y-16159404D01*
X45301261Y-16207023D01*
X45348880Y-16302261D01*
X45348880Y-16445119D01*
X44682214Y-15683214D02*
X45348880Y-15683214D01*
X44777452Y-15683214D02*
X44729833Y-15635595D01*
X44682214Y-15540357D01*
X44682214Y-15397500D01*
X44729833Y-15302261D01*
X44825071Y-15254642D01*
X45348880Y-15254642D01*
X45348880Y-14349880D02*
X44348880Y-14349880D01*
X45301261Y-14349880D02*
X45348880Y-14445119D01*
X45348880Y-14635595D01*
X45301261Y-14730833D01*
X45253642Y-14778452D01*
X45158404Y-14826071D01*
X44872690Y-14826071D01*
X44777452Y-14778452D01*
X44729833Y-14730833D01*
X44682214Y-14635595D01*
X44682214Y-14445119D01*
X44729833Y-14349880D01*
X39489166Y-37911380D02*
X39489166Y-38625666D01*
X39441547Y-38768523D01*
X39346309Y-38863761D01*
X39203452Y-38911380D01*
X39108214Y-38911380D01*
X39965357Y-38911380D02*
X39965357Y-37911380D01*
X40346309Y-37911380D01*
X40441547Y-37959000D01*
X40489166Y-38006619D01*
X40536785Y-38101857D01*
X40536785Y-38244714D01*
X40489166Y-38339952D01*
X40441547Y-38387571D01*
X40346309Y-38435190D01*
X39965357Y-38435190D01*
X40917738Y-38006619D02*
X40965357Y-37959000D01*
X41060595Y-37911380D01*
X41298690Y-37911380D01*
X41393928Y-37959000D01*
X41441547Y-38006619D01*
X41489166Y-38101857D01*
X41489166Y-38197095D01*
X41441547Y-38339952D01*
X40870119Y-38911380D01*
X41489166Y-38911380D01*
X39489214Y-46367380D02*
X39489214Y-45367380D01*
X39727309Y-45367380D01*
X39870166Y-45415000D01*
X39965404Y-45510238D01*
X40013023Y-45605476D01*
X40060642Y-45795952D01*
X40060642Y-45938809D01*
X40013023Y-46129285D01*
X39965404Y-46224523D01*
X39870166Y-46319761D01*
X39727309Y-46367380D01*
X39489214Y-46367380D01*
X41013023Y-46367380D02*
X40441595Y-46367380D01*
X40727309Y-46367380D02*
X40727309Y-45367380D01*
X40632071Y-45510238D01*
X40536833Y-45605476D01*
X40441595Y-45653095D01*
X41870166Y-45700714D02*
X41870166Y-46367380D01*
X41632071Y-45319761D02*
X41393976Y-46034047D01*
X42013023Y-46034047D01*
X32535880Y-23050333D02*
X33535880Y-22717000D01*
X32535880Y-22383666D01*
X33440642Y-21478904D02*
X33488261Y-21526523D01*
X33535880Y-21669380D01*
X33535880Y-21764619D01*
X33488261Y-21907476D01*
X33393023Y-22002714D01*
X33297785Y-22050333D01*
X33107309Y-22097952D01*
X32964452Y-22097952D01*
X32773976Y-22050333D01*
X32678738Y-22002714D01*
X32583500Y-21907476D01*
X32535880Y-21764619D01*
X32535880Y-21669380D01*
X32583500Y-21526523D01*
X32631119Y-21478904D01*
X33440642Y-20478904D02*
X33488261Y-20526523D01*
X33535880Y-20669380D01*
X33535880Y-20764619D01*
X33488261Y-20907476D01*
X33393023Y-21002714D01*
X33297785Y-21050333D01*
X33107309Y-21097952D01*
X32964452Y-21097952D01*
X32773976Y-21050333D01*
X32678738Y-21002714D01*
X32583500Y-20907476D01*
X32535880Y-20764619D01*
X32535880Y-20669380D01*
X32583500Y-20526523D01*
X32631119Y-20478904D01*
X32853404Y-51701380D02*
X32853404Y-50701380D01*
X33091500Y-50701380D01*
X33234357Y-50749000D01*
X33329595Y-50844238D01*
X33377214Y-50939476D01*
X33424833Y-51129952D01*
X33424833Y-51272809D01*
X33377214Y-51463285D01*
X33329595Y-51558523D01*
X33234357Y-51653761D01*
X33091500Y-51701380D01*
X32853404Y-51701380D01*
X33996261Y-51129952D02*
X33901023Y-51082333D01*
X33853404Y-51034714D01*
X33805785Y-50939476D01*
X33805785Y-50891857D01*
X33853404Y-50796619D01*
X33901023Y-50749000D01*
X33996261Y-50701380D01*
X34186738Y-50701380D01*
X34281976Y-50749000D01*
X34329595Y-50796619D01*
X34377214Y-50891857D01*
X34377214Y-50939476D01*
X34329595Y-51034714D01*
X34281976Y-51082333D01*
X34186738Y-51129952D01*
X33996261Y-51129952D01*
X33901023Y-51177571D01*
X33853404Y-51225190D01*
X33805785Y-51320428D01*
X33805785Y-51510904D01*
X33853404Y-51606142D01*
X33901023Y-51653761D01*
X33996261Y-51701380D01*
X34186738Y-51701380D01*
X34281976Y-51653761D01*
X34329595Y-51606142D01*
X34377214Y-51510904D01*
X34377214Y-51320428D01*
X34329595Y-51225190D01*
X34281976Y-51177571D01*
X34186738Y-51129952D01*
X29297404Y-53225380D02*
X29297404Y-52225380D01*
X29535500Y-52225380D01*
X29678357Y-52273000D01*
X29773595Y-52368238D01*
X29821214Y-52463476D01*
X29868833Y-52653952D01*
X29868833Y-52796809D01*
X29821214Y-52987285D01*
X29773595Y-53082523D01*
X29678357Y-53177761D01*
X29535500Y-53225380D01*
X29297404Y-53225380D01*
X30202166Y-52225380D02*
X30821214Y-52225380D01*
X30487880Y-52606333D01*
X30630738Y-52606333D01*
X30725976Y-52653952D01*
X30773595Y-52701571D01*
X30821214Y-52796809D01*
X30821214Y-53034904D01*
X30773595Y-53130142D01*
X30725976Y-53177761D01*
X30630738Y-53225380D01*
X30345023Y-53225380D01*
X30249785Y-53177761D01*
X30202166Y-53130142D01*
X31583404Y-46367380D02*
X31583404Y-45367380D01*
X31821500Y-45367380D01*
X31964357Y-45415000D01*
X32059595Y-45510238D01*
X32107214Y-45605476D01*
X32154833Y-45795952D01*
X32154833Y-45938809D01*
X32107214Y-46129285D01*
X32059595Y-46224523D01*
X31964357Y-46319761D01*
X31821500Y-46367380D01*
X31583404Y-46367380D01*
X32631023Y-46367380D02*
X32821500Y-46367380D01*
X32916738Y-46319761D01*
X32964357Y-46272142D01*
X33059595Y-46129285D01*
X33107214Y-45938809D01*
X33107214Y-45557857D01*
X33059595Y-45462619D01*
X33011976Y-45415000D01*
X32916738Y-45367380D01*
X32726261Y-45367380D01*
X32631023Y-45415000D01*
X32583404Y-45462619D01*
X32535785Y-45557857D01*
X32535785Y-45795952D01*
X32583404Y-45891190D01*
X32631023Y-45938809D01*
X32726261Y-45986428D01*
X32916738Y-45986428D01*
X33011976Y-45938809D01*
X33059595Y-45891190D01*
X33107214Y-45795952D01*
X38219214Y-51701380D02*
X38219214Y-50701380D01*
X38457309Y-50701380D01*
X38600166Y-50749000D01*
X38695404Y-50844238D01*
X38743023Y-50939476D01*
X38790642Y-51129952D01*
X38790642Y-51272809D01*
X38743023Y-51463285D01*
X38695404Y-51558523D01*
X38600166Y-51653761D01*
X38457309Y-51701380D01*
X38219214Y-51701380D01*
X39743023Y-51701380D02*
X39171595Y-51701380D01*
X39457309Y-51701380D02*
X39457309Y-50701380D01*
X39362071Y-50844238D01*
X39266833Y-50939476D01*
X39171595Y-50987095D01*
X40695404Y-51701380D02*
X40123976Y-51701380D01*
X40409690Y-51701380D02*
X40409690Y-50701380D01*
X40314452Y-50844238D01*
X40219214Y-50939476D01*
X40123976Y-50987095D01*
X31869166Y-37911380D02*
X31869166Y-38625666D01*
X31821547Y-38768523D01*
X31726309Y-38863761D01*
X31583452Y-38911380D01*
X31488214Y-38911380D01*
X32345357Y-38911380D02*
X32345357Y-37911380D01*
X32726309Y-37911380D01*
X32821547Y-37959000D01*
X32869166Y-38006619D01*
X32916785Y-38101857D01*
X32916785Y-38244714D01*
X32869166Y-38339952D01*
X32821547Y-38387571D01*
X32726309Y-38435190D01*
X32345357Y-38435190D01*
X33869166Y-38911380D02*
X33297738Y-38911380D01*
X33583452Y-38911380D02*
X33583452Y-37911380D01*
X33488214Y-38054238D01*
X33392976Y-38149476D01*
X33297738Y-38197095D01*
X43426214Y-48653380D02*
X43426214Y-47653380D01*
X43664309Y-47653380D01*
X43807166Y-47701000D01*
X43902404Y-47796238D01*
X43950023Y-47891476D01*
X43997642Y-48081952D01*
X43997642Y-48224809D01*
X43950023Y-48415285D01*
X43902404Y-48510523D01*
X43807166Y-48605761D01*
X43664309Y-48653380D01*
X43426214Y-48653380D01*
X44950023Y-48653380D02*
X44378595Y-48653380D01*
X44664309Y-48653380D02*
X44664309Y-47653380D01*
X44569071Y-47796238D01*
X44473833Y-47891476D01*
X44378595Y-47939095D01*
X45283357Y-47653380D02*
X45902404Y-47653380D01*
X45569071Y-48034333D01*
X45711928Y-48034333D01*
X45807166Y-48081952D01*
X45854785Y-48129571D01*
X45902404Y-48224809D01*
X45902404Y-48462904D01*
X45854785Y-48558142D01*
X45807166Y-48605761D01*
X45711928Y-48653380D01*
X45426214Y-48653380D01*
X45330976Y-48605761D01*
X45283357Y-48558142D01*
X30985869Y-23471000D02*
X29985869Y-23471000D01*
X29985869Y-23232904D01*
X30033489Y-23090047D01*
X30128727Y-22994809D01*
X30223965Y-22947190D01*
X30414441Y-22899571D01*
X30557298Y-22899571D01*
X30747774Y-22947190D01*
X30843012Y-22994809D01*
X30938250Y-23090047D01*
X30985869Y-23232904D01*
X30985869Y-23471000D01*
X30700155Y-22518619D02*
X30700155Y-22042428D01*
X30985869Y-22613857D02*
X29985869Y-22280523D01*
X30985869Y-21947190D01*
X29985869Y-21756714D02*
X29985869Y-21185285D01*
X30985869Y-21471000D02*
X29985869Y-21471000D01*
X30700155Y-20899571D02*
X30700155Y-20423380D01*
X30985869Y-20994809D02*
X29985869Y-20661476D01*
X30985869Y-20328142D01*
X27646404Y-43573380D02*
X27646404Y-42573380D01*
X27884500Y-42573380D01*
X28027357Y-42621000D01*
X28122595Y-42716238D01*
X28170214Y-42811476D01*
X28217833Y-43001952D01*
X28217833Y-43144809D01*
X28170214Y-43335285D01*
X28122595Y-43430523D01*
X28027357Y-43525761D01*
X27884500Y-43573380D01*
X27646404Y-43573380D01*
X29170214Y-43573380D02*
X28598785Y-43573380D01*
X28884500Y-43573380D02*
X28884500Y-42573380D01*
X28789261Y-42716238D01*
X28694023Y-42811476D01*
X28598785Y-42859095D01*
X32091404Y-57289380D02*
X32091404Y-56289380D01*
X32329500Y-56289380D01*
X32472357Y-56337000D01*
X32567595Y-56432238D01*
X32615214Y-56527476D01*
X32662833Y-56717952D01*
X32662833Y-56860809D01*
X32615214Y-57051285D01*
X32567595Y-57146523D01*
X32472357Y-57241761D01*
X32329500Y-57289380D01*
X32091404Y-57289380D01*
X33519976Y-56622714D02*
X33519976Y-57289380D01*
X33281880Y-56241761D02*
X33043785Y-56956047D01*
X33662833Y-56956047D01*
X36345833Y-43918142D02*
X36298214Y-43965761D01*
X36155357Y-44013380D01*
X36060119Y-44013380D01*
X35917261Y-43965761D01*
X35822023Y-43870523D01*
X35774404Y-43775285D01*
X35726785Y-43584809D01*
X35726785Y-43441952D01*
X35774404Y-43251476D01*
X35822023Y-43156238D01*
X35917261Y-43061000D01*
X36060119Y-43013380D01*
X36155357Y-43013380D01*
X36298214Y-43061000D01*
X36345833Y-43108619D01*
X37298214Y-44013380D02*
X36726785Y-44013380D01*
X37012500Y-44013380D02*
X37012500Y-43013380D01*
X36917261Y-43156238D01*
X36822023Y-43251476D01*
X36726785Y-43299095D01*
X35774404Y-55003380D02*
X35774404Y-54003380D01*
X36012500Y-54003380D01*
X36155357Y-54051000D01*
X36250595Y-54146238D01*
X36298214Y-54241476D01*
X36345833Y-54431952D01*
X36345833Y-54574809D01*
X36298214Y-54765285D01*
X36250595Y-54860523D01*
X36155357Y-54955761D01*
X36012500Y-55003380D01*
X35774404Y-55003380D01*
X36679166Y-54003380D02*
X37345833Y-54003380D01*
X36917261Y-55003380D01*
X35774404Y-56332380D02*
X35774404Y-55332380D01*
X36012500Y-55332380D01*
X36155357Y-55380000D01*
X36250595Y-55475238D01*
X36298214Y-55570476D01*
X36345833Y-55760952D01*
X36345833Y-55903809D01*
X36298214Y-56094285D01*
X36250595Y-56189523D01*
X36155357Y-56284761D01*
X36012500Y-56332380D01*
X35774404Y-56332380D01*
X37250595Y-55332380D02*
X36774404Y-55332380D01*
X36726785Y-55808571D01*
X36774404Y-55760952D01*
X36869642Y-55713333D01*
X37107738Y-55713333D01*
X37202976Y-55760952D01*
X37250595Y-55808571D01*
X37298214Y-55903809D01*
X37298214Y-56141904D01*
X37250595Y-56237142D01*
X37202976Y-56284761D01*
X37107738Y-56332380D01*
X36869642Y-56332380D01*
X36774404Y-56284761D01*
X36726785Y-56237142D01*
X35298214Y-48331380D02*
X35298214Y-47331380D01*
X35536309Y-47331380D01*
X35679166Y-47379000D01*
X35774404Y-47474238D01*
X35822023Y-47569476D01*
X35869642Y-47759952D01*
X35869642Y-47902809D01*
X35822023Y-48093285D01*
X35774404Y-48188523D01*
X35679166Y-48283761D01*
X35536309Y-48331380D01*
X35298214Y-48331380D01*
X36822023Y-48331380D02*
X36250595Y-48331380D01*
X36536309Y-48331380D02*
X36536309Y-47331380D01*
X36441071Y-47474238D01*
X36345833Y-47569476D01*
X36250595Y-47617095D01*
X37441071Y-47331380D02*
X37536309Y-47331380D01*
X37631547Y-47379000D01*
X37679166Y-47426619D01*
X37726785Y-47521857D01*
X37774404Y-47712333D01*
X37774404Y-47950428D01*
X37726785Y-48140904D01*
X37679166Y-48236142D01*
X37631547Y-48283761D01*
X37536309Y-48331380D01*
X37441071Y-48331380D01*
X37345833Y-48283761D01*
X37298214Y-48236142D01*
X37250595Y-48140904D01*
X37202976Y-47950428D01*
X37202976Y-47712333D01*
X37250595Y-47521857D01*
X37298214Y-47426619D01*
X37345833Y-47379000D01*
X37441071Y-47331380D01*
X43426214Y-43573380D02*
X43426214Y-42573380D01*
X43664309Y-42573380D01*
X43807166Y-42621000D01*
X43902404Y-42716238D01*
X43950023Y-42811476D01*
X43997642Y-43001952D01*
X43997642Y-43144809D01*
X43950023Y-43335285D01*
X43902404Y-43430523D01*
X43807166Y-43525761D01*
X43664309Y-43573380D01*
X43426214Y-43573380D01*
X44950023Y-43573380D02*
X44378595Y-43573380D01*
X44664309Y-43573380D02*
X44664309Y-42573380D01*
X44569071Y-42716238D01*
X44473833Y-42811476D01*
X44378595Y-42859095D01*
X45854785Y-42573380D02*
X45378595Y-42573380D01*
X45330976Y-43049571D01*
X45378595Y-43001952D01*
X45473833Y-42954333D01*
X45711928Y-42954333D01*
X45807166Y-43001952D01*
X45854785Y-43049571D01*
X45902404Y-43144809D01*
X45902404Y-43382904D01*
X45854785Y-43478142D01*
X45807166Y-43525761D01*
X45711928Y-43573380D01*
X45473833Y-43573380D01*
X45378595Y-43525761D01*
X45330976Y-43478142D01*
X27620004Y-48652580D02*
X27620004Y-47652580D01*
X27858100Y-47652580D01*
X28000957Y-47700200D01*
X28096195Y-47795438D01*
X28143814Y-47890676D01*
X28191433Y-48081152D01*
X28191433Y-48224009D01*
X28143814Y-48414485D01*
X28096195Y-48509723D01*
X28000957Y-48604961D01*
X27858100Y-48652580D01*
X27620004Y-48652580D01*
X28572385Y-47747819D02*
X28620004Y-47700200D01*
X28715242Y-47652580D01*
X28953338Y-47652580D01*
X29048576Y-47700200D01*
X29096195Y-47747819D01*
X29143814Y-47843057D01*
X29143814Y-47938295D01*
X29096195Y-48081152D01*
X28524766Y-48652580D01*
X29143814Y-48652580D01*
X39457404Y-57289380D02*
X39457404Y-56289380D01*
X39695500Y-56289380D01*
X39838357Y-56337000D01*
X39933595Y-56432238D01*
X39981214Y-56527476D01*
X40028833Y-56717952D01*
X40028833Y-56860809D01*
X39981214Y-57051285D01*
X39933595Y-57146523D01*
X39838357Y-57241761D01*
X39695500Y-57289380D01*
X39457404Y-57289380D01*
X40885976Y-56289380D02*
X40695500Y-56289380D01*
X40600261Y-56337000D01*
X40552642Y-56384619D01*
X40457404Y-56527476D01*
X40409785Y-56717952D01*
X40409785Y-57098904D01*
X40457404Y-57194142D01*
X40505023Y-57241761D01*
X40600261Y-57289380D01*
X40790738Y-57289380D01*
X40885976Y-57241761D01*
X40933595Y-57194142D01*
X40981214Y-57098904D01*
X40981214Y-56860809D01*
X40933595Y-56765571D01*
X40885976Y-56717952D01*
X40790738Y-56670333D01*
X40600261Y-56670333D01*
X40505023Y-56717952D01*
X40457404Y-56765571D01*
X40409785Y-56860809D01*
X27503500Y-22478904D02*
X27455880Y-22574142D01*
X27455880Y-22717000D01*
X27503500Y-22859857D01*
X27598738Y-22955095D01*
X27693976Y-23002714D01*
X27884452Y-23050333D01*
X28027309Y-23050333D01*
X28217785Y-23002714D01*
X28313023Y-22955095D01*
X28408261Y-22859857D01*
X28455880Y-22717000D01*
X28455880Y-22621761D01*
X28408261Y-22478904D01*
X28360642Y-22431285D01*
X28027309Y-22431285D01*
X28027309Y-22621761D01*
X28455880Y-22002714D02*
X27455880Y-22002714D01*
X28455880Y-21431285D01*
X27455880Y-21431285D01*
X28455880Y-20955095D02*
X27455880Y-20955095D01*
X27455880Y-20717000D01*
X27503500Y-20574142D01*
X27598738Y-20478904D01*
X27693976Y-20431285D01*
X27884452Y-20383666D01*
X28027309Y-20383666D01*
X28217785Y-20431285D01*
X28313023Y-20478904D01*
X28408261Y-20574142D01*
X28455880Y-20717000D01*
X28455880Y-20955095D01*
X41775214Y-53225380D02*
X41775214Y-52225380D01*
X42013309Y-52225380D01*
X42156166Y-52273000D01*
X42251404Y-52368238D01*
X42299023Y-52463476D01*
X42346642Y-52653952D01*
X42346642Y-52796809D01*
X42299023Y-52987285D01*
X42251404Y-53082523D01*
X42156166Y-53177761D01*
X42013309Y-53225380D01*
X41775214Y-53225380D01*
X43299023Y-53225380D02*
X42727595Y-53225380D01*
X43013309Y-53225380D02*
X43013309Y-52225380D01*
X42918071Y-52368238D01*
X42822833Y-52463476D01*
X42727595Y-52511095D01*
X43679976Y-52320619D02*
X43727595Y-52273000D01*
X43822833Y-52225380D01*
X44060928Y-52225380D01*
X44156166Y-52273000D01*
X44203785Y-52320619D01*
X44251404Y-52415857D01*
X44251404Y-52511095D01*
X44203785Y-52653952D01*
X43632357Y-53225380D01*
X44251404Y-53225380D01*
D11*
X38272500Y-40559000D02*
X38272500Y-39959000D01*
X39122500Y-41459000D02*
X38822500Y-41759000D01*
X38922500Y-39259000D02*
X41722500Y-39259000D01*
X42372500Y-39959000D02*
X42372500Y-40559000D01*
X41722500Y-41259000D02*
X38922500Y-41259000D01*
X39122500Y-41459000D02*
X39422500Y-41759000D01*
X38822500Y-41759000D02*
X39422500Y-41759000D01*
X38272500Y-39959000D02*
G75*
G02*
X38972500Y-39259000I700000J0D01*
G01*
X42372500Y-40559000D02*
G75*
G02*
X41672500Y-41259000I-700000J0D01*
G01*
X38972500Y-41259000D02*
G75*
G02*
X38272500Y-40559000I0J700000D01*
G01*
X41672500Y-39259000D02*
G75*
G02*
X42372500Y-39959000I0J-700000D01*
G01*
X39503500Y-45015000D02*
X41903500Y-45015000D01*
X41903500Y-45015000D02*
X41903500Y-44315000D01*
X39503500Y-42615000D02*
X41903500Y-42615000D01*
X32391500Y-47949000D02*
X34791500Y-47949000D01*
X32391500Y-50349000D02*
X34791500Y-50349000D01*
X34791500Y-50349000D02*
X34791500Y-49649000D01*
X28835500Y-51873000D02*
X31235500Y-51873000D01*
X28835500Y-49473000D02*
X31235500Y-49473000D01*
X31235500Y-51873000D02*
X31235500Y-51173000D01*
X33521500Y-45015000D02*
X33521500Y-44315000D01*
X31121500Y-42615000D02*
X33521500Y-42615000D01*
X31121500Y-45015000D02*
X33521500Y-45015000D01*
X38233500Y-47949000D02*
X40633500Y-47949000D01*
X38233500Y-50349000D02*
X40633500Y-50349000D01*
X40633500Y-50349000D02*
X40633500Y-49649000D01*
X30652500Y-40559000D02*
X30652500Y-39959000D01*
X31502500Y-41459000D02*
X31202500Y-41759000D01*
X31202500Y-41759000D02*
X31802500Y-41759000D01*
X31302500Y-39259000D02*
X34102500Y-39259000D01*
X34752500Y-39959000D02*
X34752500Y-40559000D01*
X31502500Y-41459000D02*
X31802500Y-41759000D01*
X34102500Y-41259000D02*
X31302500Y-41259000D01*
X30652500Y-39959000D02*
G75*
G02*
X31352500Y-39259000I700000J0D01*
G01*
X34752500Y-40559000D02*
G75*
G02*
X34052500Y-41259000I-700000J0D01*
G01*
X34052500Y-39259000D02*
G75*
G02*
X34752500Y-39959000I0J-700000D01*
G01*
X31352500Y-41259000D02*
G75*
G02*
X30652500Y-40559000I0J700000D01*
G01*
X43440500Y-47301000D02*
X45840500Y-47301000D01*
X45840500Y-47301000D02*
X45840500Y-46601000D01*
X43440500Y-44901000D02*
X45840500Y-44901000D01*
X27184500Y-39821000D02*
X29584500Y-39821000D01*
X27184500Y-42221000D02*
X29584500Y-42221000D01*
X29584500Y-42221000D02*
X29584500Y-41521000D01*
X31629500Y-53537000D02*
X34029500Y-53537000D01*
X34029500Y-55937000D02*
X34029500Y-55237000D01*
X31629500Y-55937000D02*
X34029500Y-55937000D01*
X37247500Y-41282252D02*
X37247500Y-40759748D01*
X35777500Y-41282252D02*
X35777500Y-40759748D01*
X35312500Y-53651000D02*
X37712500Y-53651000D01*
X35312500Y-51251000D02*
X37712500Y-51251000D01*
X37712500Y-53651000D02*
X37712500Y-52951000D01*
X35312500Y-58985000D02*
X37712500Y-58985000D01*
X37712500Y-58985000D02*
X37712500Y-58285000D01*
X35312500Y-56585000D02*
X37712500Y-56585000D01*
X35312500Y-47047000D02*
X37712500Y-47047000D01*
X37712500Y-47047000D02*
X37712500Y-46347000D01*
X35312500Y-44647000D02*
X37712500Y-44647000D01*
X45840500Y-42221000D02*
X45840500Y-41521000D01*
X43440500Y-42221000D02*
X45840500Y-42221000D01*
X43440500Y-39821000D02*
X45840500Y-39821000D01*
X27184500Y-47301000D02*
X29584500Y-47301000D01*
X27184500Y-44901000D02*
X29584500Y-44901000D01*
X29584500Y-47301000D02*
X29584500Y-46601000D01*
X38995500Y-53537000D02*
X41395500Y-53537000D01*
X38995500Y-55937000D02*
X41395500Y-55937000D01*
X41395500Y-55937000D02*
X41395500Y-55237000D01*
X41789500Y-49473000D02*
X44189500Y-49473000D01*
X41789500Y-51873000D02*
X44189500Y-51873000D01*
X44189500Y-51873000D02*
X44189500Y-51173000D01*
M02*
