G04 #@! TF.GenerationSoftware,KiCad,Pcbnew,(5.99.0-10027-g0561ce903e)*
G04 #@! TF.CreationDate,2021-10-10T12:50:56-07:00*
G04 #@! TF.ProjectId,scale_cca,7363616c-655f-4636-9361-2e6b69636164,v1r0*
G04 #@! TF.SameCoordinates,Original*
G04 #@! TF.FileFunction,Legend,Bot*
G04 #@! TF.FilePolarity,Positive*
%FSLAX46Y46*%
G04 Gerber Fmt 4.6, Leading zero omitted, Abs format (unit mm)*
G04 Created by KiCad (PCBNEW (5.99.0-10027-g0561ce903e)) date 2021-10-10 12:50:56*
%MOMM*%
%LPD*%
G01*
G04 APERTURE LIST*
%ADD10C,0.150000*%
G04 APERTURE END LIST*
D10*
X39441500Y-11811095D02*
X39393880Y-11715857D01*
X39393880Y-11573000D01*
X39441500Y-11430142D01*
X39536738Y-11334904D01*
X39631976Y-11287285D01*
X39822452Y-11239666D01*
X39965309Y-11239666D01*
X40155785Y-11287285D01*
X40251023Y-11334904D01*
X40346261Y-11430142D01*
X40393880Y-11573000D01*
X40393880Y-11668238D01*
X40346261Y-11811095D01*
X40298642Y-11858714D01*
X39965309Y-11858714D01*
X39965309Y-11668238D01*
X40393880Y-12287285D02*
X39393880Y-12287285D01*
X40393880Y-12858714D01*
X39393880Y-12858714D01*
X40393880Y-13334904D02*
X39393880Y-13334904D01*
X39393880Y-13573000D01*
X39441500Y-13715857D01*
X39536738Y-13811095D01*
X39631976Y-13858714D01*
X39822452Y-13906333D01*
X39965309Y-13906333D01*
X40155785Y-13858714D01*
X40251023Y-13811095D01*
X40346261Y-13715857D01*
X40393880Y-13573000D01*
X40393880Y-13334904D01*
X42933880Y-11327000D02*
X41933880Y-11327000D01*
X41933880Y-11565095D01*
X41981500Y-11707952D01*
X42076738Y-11803190D01*
X42171976Y-11850809D01*
X42362452Y-11898428D01*
X42505309Y-11898428D01*
X42695785Y-11850809D01*
X42791023Y-11803190D01*
X42886261Y-11707952D01*
X42933880Y-11565095D01*
X42933880Y-11327000D01*
X42648166Y-12279380D02*
X42648166Y-12755571D01*
X42933880Y-12184142D02*
X41933880Y-12517476D01*
X42933880Y-12850809D01*
X41933880Y-13041285D02*
X41933880Y-13612714D01*
X42933880Y-13327000D02*
X41933880Y-13327000D01*
X42648166Y-13898428D02*
X42648166Y-14374619D01*
X42933880Y-13803190D02*
X41933880Y-14136523D01*
X42933880Y-14469857D01*
X44473880Y-11239666D02*
X45473880Y-11573000D01*
X44473880Y-11906333D01*
X45378642Y-12811095D02*
X45426261Y-12763476D01*
X45473880Y-12620619D01*
X45473880Y-12525380D01*
X45426261Y-12382523D01*
X45331023Y-12287285D01*
X45235785Y-12239666D01*
X45045309Y-12192047D01*
X44902452Y-12192047D01*
X44711976Y-12239666D01*
X44616738Y-12287285D01*
X44521500Y-12382523D01*
X44473880Y-12525380D01*
X44473880Y-12620619D01*
X44521500Y-12763476D01*
X44569119Y-12811095D01*
X45378642Y-13811095D02*
X45426261Y-13763476D01*
X45473880Y-13620619D01*
X45473880Y-13525380D01*
X45426261Y-13382523D01*
X45331023Y-13287285D01*
X45235785Y-13239666D01*
X45045309Y-13192047D01*
X44902452Y-13192047D01*
X44711976Y-13239666D01*
X44616738Y-13287285D01*
X44521500Y-13382523D01*
X44473880Y-13525380D01*
X44473880Y-13620619D01*
X44521500Y-13763476D01*
X44569119Y-13811095D01*
M02*
